<svg width="262" height="73" viewBox="0 0 262 73" fill="none" xmlns="http://www.w3.org/2000/svg">
<path fill-rule="evenodd" clip-rule="evenodd" d="M38.7332 57.7253L38.7298 57.5595L38.7246 57.2297L38.7143 56.7349L38.7117 56.5691L38.7013 56.0735L38.6987 55.9095L38.6953 55.7446L38.6901 55.4139L38.6798 54.92L38.6772 54.7542L38.6703 54.4235L38.6677 54.2586L38.6574 53.7648L38.6556 53.599L38.6453 53.1024L38.6427 52.9384L38.6393 52.7726L38.6358 52.6086L38.6332 52.4437L38.6263 52.113L38.6211 51.7832L38.6143 51.4525L38.6117 51.2875L38.6013 50.7937L38.5987 50.627L38.5918 50.2972L38.5867 49.9674L38.5798 49.6376L38.5772 49.4726L38.5737 49.3077L38.5703 49.1419L38.5677 48.977L38.5573 48.4823L38.5548 48.3165L38.5513 48.1525L38.5487 47.9858L38.5453 47.8226L38.5427 47.6568L38.5358 47.3261L38.5332 47.1612L38.5229 46.6665L38.5203 46.5016L38.5134 46.1709L38.5117 46.0051L38.5082 45.841L38.5048 45.6752L38.5013 45.5112L38.4987 45.3454L38.4918 45.0156L38.4892 44.8516L38.4789 44.3551L38.4737 44.0252L38.4668 43.6954L38.4642 43.5305L38.4573 43.1998L38.4547 43.034L38.4479 42.7104V42.7051L38.4444 42.5402L38.4427 42.3744L38.4358 42.0445L38.4332 41.8805L38.4228 41.384L38.4203 41.2191L38.4099 40.7244L38.4047 40.3945L38.4013 40.2296L38.3987 40.0638L38.3918 39.7331L38.3892 39.5691L38.3789 39.0735L38.3763 38.9086L38.3728 38.7437L38.3703 38.5779L38.3668 38.4138L38.3642 38.248L38.3608 38.084C38.2952 36.18 37.5124 34.3053 36.0311 32.9352C34.8697 31.8611 33.4575 31.2603 32.0159 31.1203C30.3156 30.9554 28.5792 31.4421 27.1609 32.5395C26.7936 32.8238 26.4418 33.1394 26.1236 33.5066C25.9038 33.7607 25.7124 34.0299 25.533 34.3053C24.77 35.4802 24.3742 36.8245 24.3449 38.1732L24.3415 38.339L24.326 39.3302L24.3242 39.4951L24.3216 39.66L24.3182 39.8258L24.2923 41.4776L24.2889 41.6425L24.2872 41.8074L24.2665 43.1294L24.263 43.2943L24.2501 44.1197L24.2484 44.2855L24.2406 44.7803L24.2371 44.947L24.219 46.1031L24.2173 46.2671L24.2121 46.5987L24.2087 46.7637L24.157 50.0672L24.1535 50.2321L24.1518 50.3346L24.1509 50.3854L24.1087 50.3685L23.9785 50.3034L23.85 50.2375L23.7345 50.1751L23.6164 50.1082L23.4922 50.036L23.3672 49.962L23.2448 49.8871L23.1215 49.8114L22.9999 49.7347L22.7585 49.5778L22.6723 49.519L22.561 49.4388L22.4446 49.3532L22.3291 49.2676L22.2144 49.1812L21.9885 49.0047L21.8756 48.9146L21.7652 48.8246L21.6937 48.764L21.6902 48.7595L21.5988 48.682L21.5738 48.6561L21.4919 48.5857L21.4592 48.5518L21.3859 48.4894L21.3445 48.4466L21.2798 48.3905L21.2315 48.3406L21.1755 48.2924L21.1194 48.2327L21.0712 48.1926L21.0074 48.1248L20.9677 48.0918L20.8961 48.0161L20.8651 47.9902L20.7858 47.9064L20.7642 47.8886L20.7134 47.8351L20.6185 47.7326L20.5202 47.6248L20.4245 47.5169L20.3297 47.409L20.234 47.2985L20.14 47.188L19.9538 46.9651L19.8624 46.8519L19.8012 46.7735L19.7227 46.6718L19.6356 46.5551L19.5494 46.4374L19.4873 46.35L19.4649 46.3179L19.3795 46.1985L19.295 46.0791L19.2123 45.9578L19.1304 45.8366L19.0485 45.7136L18.9683 45.5915L18.9131 45.505L18.8407 45.3864L18.7648 45.2598L18.6898 45.1333L18.6156 45.0049L18.5423 44.8765L18.4699 44.7473L18.3984 44.618L18.257 44.356L18.188 44.224L18.1328 44.1144L18.075 44.0003L18.0104 43.8648L17.9474 43.7293L17.8854 43.5938L17.8224 43.4574L17.7621 43.321L17.7017 43.1838L17.6422 43.0447L17.5844 42.9074L17.5267 42.7675L17.4689 42.6284L17.4267 42.5197L17.3767 42.3842L17.3249 42.2424L17.2749 42.1007L17.224 41.9581L17.1758 41.8137L17.1275 41.671L17.0792 41.5266L17.0326 41.3822L16.9878 41.2378L16.943 41.0925L16.8981 40.9463L16.8654 40.8313L16.8274 40.6887L16.7878 40.5407L16.7507 40.3928L16.7136 40.2457L16.6774 40.0968L16.6421 39.948L16.6076 39.7991L16.5421 39.4996L16.5102 39.3498L16.48 39.1992L16.4567 39.0762L16.4308 38.9326L16.4058 38.7802L16.3575 38.4771L16.3351 38.3247L16.292 38.0198L16.2722 37.8674L16.2524 37.7141L16.2351 37.5608L16.217 37.4074L16.2041 37.2782L16.192 37.1382L16.1799 36.9822L16.1696 36.8298L16.1592 36.6756L16.1498 36.5214L16.1342 36.2121L16.1282 36.057L16.123 35.9036L16.1144 35.5934L16.1135 35.466V35.3242L16.1187 35.0149L16.1273 34.7056L16.1394 34.3954L16.1472 34.2403L16.1558 34.0852L16.1653 33.9318L16.1756 33.7767L16.1851 33.6644L16.1998 33.5147L16.2153 33.3596L16.2325 33.2062L16.2498 33.052L16.2696 32.8969L16.2886 32.7445L16.3101 32.5912L16.3317 32.437L16.3351 32.4129L16.3179 32.4031L16.2937 32.5029L16.2498 32.6865L16.2075 32.8693L16.1765 33.0155L16.1411 33.1955L16.1049 33.381L16.0704 33.5673L16.0377 33.7536L16.0049 33.9408L15.9739 34.1271L15.9446 34.3151L15.9152 34.5023L15.8868 34.6913L15.8601 34.8794L15.8351 35.0675L15.8161 35.2235L15.7971 35.4018L15.7773 35.5916L15.76 35.7815L15.7437 35.9714L15.7281 36.1621L15.7135 36.3511L15.7006 36.5428L15.6885 36.7326L15.6773 36.9234L15.6669 37.1151L15.6592 37.3058L15.654 37.4663L15.6505 37.6428L15.648 37.8326L15.6471 38.0243L15.648 38.2159L15.6497 38.4085L15.6523 38.5993L15.6557 38.7918L15.6609 38.9834L15.6669 39.1751L15.6738 39.3659L15.6824 39.5584L15.6919 39.7153L15.704 39.89L15.7187 40.0817L15.7359 40.2733L15.7531 40.4641L15.7721 40.6557L15.7919 40.8456L15.8126 41.0373L15.8351 41.2271L15.8583 41.4188L15.8833 41.6086L15.9083 41.7994L15.929 41.9367L15.9592 42.1212L15.992 42.3111L16.0265 42.4992L16.0601 42.689L16.0963 42.8771L16.1342 43.0661L16.1722 43.2533L16.2127 43.4423L16.2532 43.6286L16.2955 43.8167L16.3351 43.9825L16.3705 44.1251L16.4188 44.3096L16.4688 44.495L16.5205 44.6804L16.5731 44.8641L16.6265 45.0486L16.6817 45.2331L16.7378 45.4158L16.7947 45.5995L16.8533 45.7813L16.9102 45.9525L16.9516 46.0728L17.0171 46.2538L17.0835 46.4329L17.1516 46.6121L17.2206 46.7913L17.2904 46.9696L17.362 47.1479L17.4353 47.3252L17.5086 47.5017L17.5836 47.6782L17.6534 47.8333L17.7043 47.9474L17.7871 48.1222L17.8707 48.2942L17.9552 48.4662L18.0405 48.6383L18.1276 48.8094L18.3052 49.15L18.3958 49.3184L18.488 49.4878L18.538 49.5743L18.6312 49.7338L18.7294 49.8987L18.8303 50.0627L18.9321 50.2259L19.0347 50.3881L19.139 50.5504L19.2433 50.7117L19.3502 50.873L19.4571 51.0326L19.5184 51.1191L19.5796 51.2046L19.6166 51.2572L19.7313 51.4132L19.8477 51.5674L19.965 51.7217L20.0831 51.8741L20.2029 52.0256L20.3236 52.1772L20.4443 52.326L20.5642 52.4722L20.6866 52.6184L20.7211 52.6585L20.7297 52.6674L20.8375 52.7913L20.8651 52.8181L20.9634 52.9313L21.0005 52.967L21.0893 53.0713L21.1367 53.1149L21.2177 53.2085L21.2729 53.262L21.3453 53.3467L21.4109 53.4073L21.4764 53.484L21.5514 53.5544L21.6169 53.6311L21.7066 53.7166L21.7626 53.7808L21.8635 53.878L21.9084 53.9288L22.0213 54.0358L22.0549 54.075L22.1791 54.1935L22.192 54.2078L22.3015 54.3121L22.4507 54.4476L22.6007 54.5831L22.7516 54.715L22.9025 54.846L23.0551 54.9762L23.2085 55.1054L23.3603 55.2311L23.5146 55.3568L23.65 55.4629L23.7535 55.5422L23.9095 55.6572L24.0664 55.7713L24.2225 55.8827L24.3803 55.9933L24.5389 56.102L24.6967 56.2099L24.8562 56.3151L25.0157 56.4194L25.0985 56.4711L25.2476 56.5611L25.408 56.6556L25.571 56.7483L25.7322 56.841L25.8951 56.9302L26.0581 57.0193L26.2228 57.1067L26.3857 57.1913L26.5401 57.2689L26.609 57.3028L26.7746 57.3794L26.9401 57.4543L27.1074 57.5283L27.2729 57.5996L27.2841 57.6041L27.4402 57.67L27.6075 57.7396L27.7747 57.8073L27.9429 57.8724L28.0093 57.8973L28.1593 57.9508L28.3283 58.0079L28.4973 58.064L28.668 58.1184L28.8378 58.171L29.0085 58.2227L29.1775 58.2726L29.35 58.3216L29.5207 58.3689L29.5603 58.3787L29.7311 58.4179L29.9026 58.4571L30.0733 58.4937L30.2475 58.5302L30.4191 58.5641L30.5915 58.5971L30.764 58.6292L30.9373 58.6595L31.108 58.688L31.1425 58.6934L31.3166 58.7148L31.4891 58.7361L31.6624 58.7549L31.8365 58.7727L32.0107 58.7887L32.1849 58.8048L32.3582 58.8182L32.5323 58.8306L32.7065 58.8422L32.7462 58.844L32.9082 58.8494L33.0815 58.852L33.2557 58.8538L33.4307 58.8547L33.6049 58.8538L33.7782 58.852L33.9524 58.8476L34.1283 58.8431L34.3016 58.8369L34.4757 58.8297L34.4981 58.828L34.6714 58.8146L34.8456 58.7994L35.0198 58.7825L35.1931 58.7656L35.3664 58.746L35.5397 58.7263L35.713 58.7049L35.8871 58.6818L36.0596 58.6586L36.2337 58.6327L36.2656 58.6283L36.4234 58.5998L36.5959 58.5668L36.7674 58.5338L36.939 58.4981L37.1114 58.4616L37.2839 58.4242L37.4537 58.3858L37.6253 58.3448L37.7952 58.3038L37.9667 58.261L38.1375 58.2182L38.1573 58.2129L38.3194 58.1656L38.4884 58.1148L38.6565 58.0631L38.7393 58.0373L38.7358 57.8911L38.7332 57.7253Z" fill="#4746BD"/>
<path fill-rule="evenodd" clip-rule="evenodd" d="M46.0282 31.6597L46.0049 31.4627L45.9807 31.2657L45.9549 31.0705L45.9281 30.8753L45.9006 30.6801L45.8721 30.4857L45.8411 30.2923L45.81 30.0998L45.7781 29.9063L45.7454 29.7156C45.6997 29.384 45.6402 29.0541 45.566 28.7288L45.5289 28.538L45.4919 28.349L45.4531 28.1601L45.4134 27.972L45.3729 27.7839L45.3315 27.5976L45.2884 27.4104L45.2444 27.225L45.1987 27.0404L45.1539 26.8559L45.1065 26.6723L45.0582 26.4887C44.9849 26.1642 44.8978 25.8433 44.7961 25.5268L44.7444 25.345L44.6926 25.1658L44.64 24.9849L44.5857 24.8057L44.4753 24.4491L44.4176 24.2726L44.3598 24.0952L44.2408 23.744L44.1805 23.5693L44.1193 23.3955L44.0563 23.2225C43.9546 22.907 43.839 22.5977 43.7097 22.2928L43.6442 22.1217L43.5778 21.9514L43.5097 21.7811L43.4416 21.6118L43.3726 21.4433L43.3028 21.2757L43.2312 21.1081L43.1596 20.9414L43.0863 20.7756L43.0131 20.6107L42.863 20.2827L42.7872 20.1196L42.7104 19.9573C42.5802 19.6551 42.4371 19.3583 42.2802 19.0695L42.2354 18.9794L42.2 18.909L42.119 18.7495L42.0379 18.5908L41.956 18.433L41.8724 18.2752L41.7887 18.1183L41.7042 17.9624L41.6189 17.8081L41.5318 17.653L41.4447 17.4988L41.3568 17.3455L41.268 17.194L41.1783 17.0424C41.0231 16.7545 40.8524 16.4728 40.6679 16.2L40.5765 16.0503L40.4834 15.9014L40.3903 15.7543L40.2963 15.6073L40.2014 15.4611L40.1049 15.3149L40.0092 15.1705L39.9117 15.0261L39.8126 14.8816L39.7143 14.739L39.6152 14.5973L39.5151 14.4564L39.4134 14.3156L39.3117 14.1757L39.2091 14.0366C39.0263 13.7647 38.8297 13.5035 38.6193 13.2486L38.5141 13.1131L38.4089 12.9767L38.1968 12.7075L38.0891 12.5747L37.9813 12.441L37.8727 12.3099L37.7632 12.178L37.6528 12.047L37.5433 11.9168L37.4312 11.7885L37.3191 11.6592L37.207 11.5326L37.0932 11.4061L36.9786 11.2786C36.7708 11.029 36.5492 10.7874 36.3147 10.5565L36.3104 10.553L36.206 10.4398L36.1948 10.4291L36.0974 10.323L36.0784 10.3069L35.987 10.2071L35.9612 10.1848L35.8767 10.093L35.8439 10.0636L35.7654 9.97891L35.7249 9.94236L35.6534 9.8657L35.6059 9.8238L35.5413 9.75338L35.487 9.70525L35.4283 9.64196L35.3671 9.58669L35.3154 9.53053L35.2464 9.46902L35.2007 9.42089L35.1248 9.35314L35.086 9.31035L35.0033 9.23726L34.9705 9.2016L34.8808 9.12137L34.8541 9.09463L34.7575 9.00906L34.7386 8.98766L34.6334 8.89496L34.6213 8.88069L34.5092 8.78264L34.5032 8.77551C34.2704 8.54731 34.029 8.33426 33.7807 8.13637L33.6565 8.02762L33.5289 7.91797L33.403 7.81011L33.2746 7.70225L33.1478 7.59618L33.0185 7.4901L32.8909 7.38491L32.7607 7.28062L32.6296 7.17721L32.5003 7.0747L32.3693 6.97219L32.2365 6.87146L32.1054 6.77162L31.9727 6.67179L31.839 6.57284L31.7054 6.47568C31.4571 6.27778 31.2018 6.09505 30.9406 5.92924L30.8061 5.83297L30.5354 5.64578L30.3983 5.55307L30.2612 5.46126L30.1241 5.37122L29.987 5.2803L29.8491 5.19116L29.7102 5.10291L29.4309 4.92819L29.2912 4.84351L29.1507 4.75793L29.0101 4.67325L28.8687 4.59124L28.7273 4.50834L28.5859 4.42722C28.3256 4.26053 28.0609 4.11166 27.7901 3.97795L27.6462 3.89862L27.503 3.82017L27.359 3.74262L27.2151 3.66685L27.0711 3.59197L26.9254 3.5171L26.7796 3.44311L26.4882 3.2987L26.3408 3.22739L26.1942 3.15786L26.0476 3.08833L25.9002 3.02058L25.7519 2.95283L25.6036 2.88598L25.4553 2.82001C25.1863 2.6872 24.913 2.56864 24.6362 2.46613L24.4862 2.40284L24.337 2.34133L24.187 2.27982L24.037 2.21921L23.887 2.16037L23.5835 2.04449L23.4317 1.98833L23.2809 1.93217L22.9756 1.82342L22.823 1.76994L22.6704 1.71824L22.517 1.66743L22.21 1.56759L22.116 1.53906C21.9893 1.58185 21.8617 1.61661 21.7367 1.66475L21.5815 1.71913L21.4263 1.7735L21.2702 1.83055L21.1159 1.8876L20.9607 1.94644L20.8055 2.00527L20.652 2.06588L20.4968 2.12828L20.3425 2.19157L20.1899 2.25575L20.0356 2.32172L19.8821 2.38768L19.6941 2.47147C19.4424 2.57042 19.1941 2.68185 18.9501 2.80754L18.7983 2.87796L18.6483 2.95016L18.4965 3.02326L18.3448 3.09813L18.1939 3.17301L18.043 3.24967L17.893 3.32812L17.743 3.40656L17.593 3.48679L17.4438 3.56791L17.2946 3.65081L17.1455 3.73549C16.8911 3.86474 16.642 4.00826 16.3988 4.16693L16.2505 4.25429L16.1039 4.34165L15.9574 4.43079L15.8117 4.52082L15.6651 4.61353L15.5194 4.70534L15.3745 4.80072L15.2297 4.89521L15.0857 4.99237L14.9408 5.09043L14.796 5.18848L14.6529 5.28921L14.5097 5.39083C14.2666 5.54772 14.0304 5.71887 13.8002 5.90339L13.6596 6.00769L13.5182 6.11466L13.3777 6.22163L13.2371 6.32949L13.0975 6.43913L12.9587 6.54966L12.819 6.66198L12.6802 6.77519L12.5422 6.88929L12.4034 7.00517L12.2663 7.12106L12.1292 7.23961L11.993 7.35906C11.7645 7.54269 11.5421 7.74058 11.3282 7.95185L11.1937 8.07486L11.0601 8.19698L10.9265 8.32267L10.7928 8.44925L10.6609 8.57672L10.5281 8.70509L10.3971 8.83434L10.1341 9.09909L10.0048 9.2328L9.87458 9.36829L9.74525 9.50379L9.61679 9.64196C9.40469 9.85054 9.19948 10.0734 9.00463 10.3096L8.88564 10.4398L8.8753 10.454L8.76752 10.5717L8.74942 10.5958L8.6494 10.7045L8.62354 10.7384L8.53214 10.8382L8.49852 10.8828L8.41489 10.9746L8.3735 11.029L8.29935 11.111L8.25107 11.1761L8.18382 11.2492L8.12691 11.324L8.06828 11.3882L8.00448 11.4738L7.95361 11.5291L7.88205 11.6253L7.8398 11.6708L7.76048 11.7778L7.72685 11.8143L7.63977 11.9311L7.61477 11.9587L7.52596 12.0764L7.51303 12.0898L7.42077 12.2137L7.41474 12.2199C7.22247 12.4535 7.04227 12.6941 6.875 12.9419L6.77154 13.0819L6.66894 13.2218L6.56806 13.3627L6.46632 13.5062L6.36545 13.6488L6.26716 13.7897L6.16887 13.9332L6.07144 14.0776L5.97401 14.2211L5.87831 14.3664L5.78346 14.5117L5.6869 14.6606L5.58861 14.813L5.39548 15.1214C5.22821 15.3692 5.07215 15.6251 4.93075 15.8863L4.74624 16.1983L4.65658 16.3551L4.56605 16.512L4.4781 16.6698L4.39016 16.8285L4.3048 16.9872L4.21858 17.1458L4.05131 17.4649L3.96941 17.6263L3.8875 17.7867L3.80818 17.9481C3.66678 18.2075 3.53831 18.4722 3.42364 18.7423L3.34604 18.9046L3.27103 19.0668L3.19602 19.2299L3.12273 19.394L3.04944 19.5589L2.97788 19.722L2.90718 19.8869L2.83734 20.0518L2.76923 20.2176L2.70025 20.3834L2.63387 20.5501L2.56834 20.7159L2.50367 20.8826L2.44073 21.0493C2.32606 21.3176 2.22605 21.5904 2.13724 21.8667L2.07689 22.0352L2.0174 22.2028L1.95877 22.3721L1.90186 22.5415L1.84496 22.71L1.78978 22.8802L1.73546 23.0496L1.66045 23.2885L1.62941 23.3892L1.52767 23.7315L1.47852 23.9036L1.43024 24.0738C1.39058 24.1986 1.36213 24.3252 1.32764 24.4509C1.26642 24.6586 1.20607 24.8672 1.15951 25.0776L1.11554 25.2496L1.07243 25.4225L1.03018 25.5955L0.987935 25.7675L0.908613 26.1134L0.869814 26.2872L0.83274 26.4619L0.796527 26.634L0.761177 26.8078L0.72669 26.9834L0.693064 27.1572L0.6603 27.331L0.629261 27.5058C0.568046 27.7839 0.519763 28.0647 0.48355 28.3464L0.455098 28.522L0.42837 28.6958L0.40078 28.8714L0.374914 29.047L0.350772 29.2217L0.326631 29.3973L0.304214 29.5729L0.283521 29.7477L0.261966 29.9241L0.242136 30.0998L0.223167 30.2763L0.205924 30.451L0.18868 30.6275L0.17316 30.804C0.136948 31.083 0.112806 31.3656 0.103322 31.6463L0.0895271 31.8228L0.0774564 31.9985L0.0567637 32.3506L0.0472796 32.5262L0.0386576 32.7027L0.0248625 33.0548L0.0145161 33.4078L0.0110674 33.5843L0.00848078 33.759L0.00675639 33.9355L0.00589419 34.1111V34.2876C-0.00358996 34.5666 -0.00186557 34.8474 0.0127918 35.1255L0.0153783 35.3029L0.0196893 35.4767L0.0248625 35.6523L0.0369332 36.0035L0.0438308 36.1792L0.0627991 36.5295L0.0731454 36.7051L0.084354 36.8798L0.0964247 37.0545L0.124015 37.4039L0.138672 37.5778C0.152467 37.8559 0.179195 38.1322 0.217994 38.4068L0.235238 38.5806L0.273175 38.9283L0.293867 39.1003L0.315422 39.275L0.337839 39.4479L0.361119 39.62L0.384398 39.7929L0.409402 39.9659L0.435267 40.137L0.462858 40.3108L0.489586 40.4811L0.5189 40.654L0.548215 40.8261L0.578392 40.9963C0.616329 41.2691 0.667198 41.541 0.730138 41.8084L0.762902 41.9795L0.796527 42.1489L0.831877 42.3201L0.867227 42.4885L0.904302 42.6588L0.941376 42.8273L0.980175 42.9966L1.01897 43.1642L1.0595 43.3336L1.14227 43.6688L1.18538 43.8372L1.22849 44.003L1.27332 44.1706L1.31902 44.3373L1.36558 44.504C1.39403 44.6252 1.43369 44.7438 1.46732 44.8632C1.49404 44.9515 1.51301 45.0406 1.54319 45.128L1.59061 45.2938L1.63889 45.4578L1.6889 45.6218L1.73977 45.7867L1.84323 46.1148L1.95014 46.441L2.00533 46.6024L2.06137 46.7655L2.11827 46.9277L2.17518 47.0882L2.23381 47.2495L2.2933 47.4109L2.35279 47.5704L2.41401 47.73L2.45798 47.8441C2.51919 48.0081 2.57696 48.173 2.64766 48.3326L2.70974 48.4913L2.77354 48.6491L2.83821 48.8077L2.90115 48.9593L2.90373 48.9646L2.96926 49.1224L3.10376 49.4344L3.17188 49.5904L3.24171 49.7455L3.31155 49.8997L3.38311 50.0548L3.45468 50.2072L3.5271 50.3614L3.6754 50.6663C3.78576 50.9141 3.90733 51.1575 4.04097 51.3946L4.1177 51.5443L4.1953 51.695L4.27376 51.8439L4.35308 51.9927L4.43327 52.1416L4.51431 52.2887L4.59708 52.4366L4.67899 52.5828L4.76263 52.729L4.84712 52.8743L4.93248 53.0205L5.10492 53.3093L5.19286 53.452L5.28167 53.5946C5.41445 53.8308 5.55929 54.0599 5.71535 54.2836L5.80675 54.4245L5.89814 54.5635L5.99125 54.7035L6.08437 54.8426L6.17921 54.9807L6.27319 55.1171L6.3689 55.2544L6.46632 55.3908L6.56289 55.5263L6.66118 55.6609L6.76033 55.7955L6.86121 55.9292L6.96122 56.0629L7.06296 56.1939L7.08021 56.218C7.2035 56.3838 7.3268 56.5505 7.46216 56.7074L7.56476 56.8384L7.66822 56.9677L7.77341 57.0978L7.8786 57.2253L7.98465 57.3536L8.09156 57.4811L8.19934 57.6068L8.30797 57.7334L8.52783 57.9821L8.63906 58.1051L8.86323 58.3493L8.97704 58.4706C9.15292 58.6756 9.34088 58.8726 9.54005 59.0616L9.54522 59.066L9.64696 59.173L9.66076 59.1846L9.7556 59.2835L9.77715 59.3023L9.86424 59.3932L9.89355 59.419L9.97373 59.5019L10.0125 59.5349L10.0841 59.6107L10.1307 59.6499L10.1953 59.7177L10.2505 59.7658L10.3074 59.8237L10.3712 59.879L10.4204 59.9298L10.4928 59.9922L10.5333 60.035L10.6135 60.1036L10.6471 60.1393L10.7376 60.216L10.7626 60.2418L10.8601 60.3256L10.8782 60.3443L10.9851 60.4352L10.9954 60.4459L11.1092 60.544L11.1118 60.5458C11.3119 60.7348 11.5179 60.9095 11.7292 61.0726L11.8576 61.1778L11.9844 61.2821L12.1137 61.3873L12.243 61.4907L12.3732 61.5932L12.5051 61.6939L12.6362 61.7937L12.7698 61.8945L12.9018 61.9925L13.0363 62.0897L13.1725 62.1877L13.307 62.2831C13.5191 62.4463 13.7364 62.596 13.9588 62.7324L14.0959 62.826L14.2347 62.9178L14.3744 63.0087L14.6555 63.187L14.7969 63.2753L14.94 63.3626L15.2262 63.5338L15.3711 63.6176L15.5168 63.7005L15.6634 63.7834C15.8841 63.9189 16.1108 64.0428 16.341 64.1533L16.4893 64.2317L16.6376 64.3093L16.7877 64.3869L16.9377 64.4617L17.0894 64.5366L17.2412 64.6106L17.3929 64.6828L17.5473 64.7541L17.5774 64.7675L17.7016 64.8245L17.8559 64.8932L18.012 64.9609L18.1689 65.0278C18.3982 65.1383 18.6319 65.2355 18.8673 65.3202L19.0259 65.3834L19.1854 65.4458L19.3449 65.5065L19.5053 65.5671L19.6657 65.6259L19.8278 65.6838L19.9907 65.74L20.1545 65.7962L20.3184 65.8496L20.483 65.904L20.6494 65.9548C20.884 66.0404 21.1228 66.1117 21.3633 66.1714L21.5297 66.2187L21.6987 66.2668L21.8669 66.3123L22.0358 66.356L22.2057 66.3997L22.3773 66.4424L22.5489 66.4834L22.7213 66.5236L22.8937 66.5619L23.0679 66.5993L23.2429 66.635C23.4826 66.6947 23.7232 66.7411 23.9663 66.7758L24.1422 66.807L24.3189 66.8391L24.4957 66.8685L24.6742 66.8962L24.8526 66.9229L25.032 66.9488L25.2122 66.9728L25.3932 66.996L25.5743 67.0174L25.7571 67.0379L25.9399 67.0575C26.1821 67.0923 26.4244 67.1137 26.6676 67.1244L26.8512 67.1386L27.0366 67.152L27.2211 67.1645L27.4082 67.1761L27.5936 67.185L27.7815 67.193L27.9703 67.2001L28.1592 67.2055L28.3488 67.209L28.4118 67.2099L28.5394 67.2108L28.7308 67.2126C28.9722 67.2224 29.2145 67.2215 29.4576 67.2073L29.6473 67.2046L29.8404 67.1992L30.0344 67.1939L30.2276 67.1859L30.4233 67.177L30.6173 67.1672L30.8139 67.1547L31.0104 67.1413L31.2079 67.127L31.4053 67.1101L31.6054 67.0932C32.0865 67.0655 32.5658 66.9907 33.0349 66.8667C34.473 66.5218 35.8284 65.7284 36.8872 64.4885C38.2512 62.8902 38.865 60.8631 38.7555 58.8806L38.7486 58.5508L38.7461 58.385L38.7392 58.0552V58.0374L38.6564 58.0632L38.4883 58.1149L38.3193 58.1657L38.1572 58.213L38.1373 58.2183L37.9666 58.2611L37.7951 58.3039L37.6252 58.3449L37.4536 58.3859L37.2838 58.4242L37.1113 58.4617L36.9389 58.4982L36.7673 58.5339L36.5957 58.5669L36.4233 58.5998L36.2655 58.6284L36.2336 58.6328L36.0595 58.6587L35.887 58.6818L35.7129 58.705L35.5396 58.7264L35.3662 58.746L35.1938 58.7656L35.0196 58.7826L34.8455 58.7995L34.6713 58.8147L34.498 58.828L34.4756 58.8298L34.3014 58.8369L34.1281 58.8432L33.9523 58.8476L33.7781 58.8521L33.6048 58.8539L33.4306 58.8548L33.2556 58.8539L33.0814 58.8521L32.9081 58.8494L32.746 58.8441L32.7064 58.8423L32.5322 58.8307L32.3581 58.8182L32.1847 58.8049L32.0106 58.7888L31.8364 58.7728L31.6623 58.7549L31.489 58.7362L31.3165 58.7148L31.1424 58.6934L31.1079 58.6881L30.9372 58.6596L30.7639 58.6292L30.5923 58.5972L30.419 58.5642L30.2474 58.5303L30.0732 58.4938L29.9025 58.4572L29.7309 58.418L29.5602 58.3788L29.5206 58.369L29.3499 58.3217L29.1774 58.2727L29.0084 58.2228L28.8377 58.1711L28.6679 58.1185L28.4971 58.0641L28.3281 58.0079L28.1592 57.9509L28.0091 57.8974L27.9427 57.8724L27.7746 57.8074L27.6074 57.7396L27.4401 57.6701L27.284 57.6041L27.2728 57.5997L27.1073 57.5284L26.94 57.4544L26.7745 57.3795L26.6089 57.3028L26.54 57.269L26.3856 57.1914L26.2227 57.1067L26.058 57.0194L25.895 56.9302L25.7321 56.8411L25.5708 56.7484L25.4079 56.6557L25.2475 56.5612L25.0984 56.4712L25.0156 56.4195L24.8561 56.3152L24.6966 56.21L24.5388 56.1021L24.3802 55.9934L24.2224 55.8828L24.0663 55.7714L23.9094 55.6573L23.7533 55.5423L23.6499 55.463L23.5145 55.3569L23.3602 55.2312L23.2084 55.1055L23.055 54.9763L22.9024 54.8461L22.7515 54.7151L22.6006 54.5832L22.4506 54.4477L22.3014 54.3122L22.1919 54.2079L22.179 54.1936L22.0548 54.0751L22.0212 54.0358L21.9082 53.9289L21.8634 53.878L21.7625 53.7809L21.7065 53.7167L21.6168 53.6311L21.5513 53.5545L21.4763 53.484L21.4108 53.4074L21.3452 53.3468L21.2728 53.2621L21.2176 53.2086L21.1366 53.115L21.0892 53.0713L21.0004 52.967L20.9633 52.9314L20.865 52.8182L20.8374 52.7914L20.7296 52.6675L20.721 52.6586L20.6865 52.6185L20.5641 52.4723L20.4442 52.3261L20.3235 52.1772L20.2028 52.0257L20.083 51.8742L19.9649 51.7217L19.8476 51.5675L19.7312 51.4133L19.6165 51.2573L19.5795 51.2047L19.5182 51.1191L19.457 51.0327L19.3501 50.8731L19.2432 50.7118L19.1389 50.5504L19.0345 50.3882L18.9319 50.226L18.8302 50.0628L18.7293 49.8988L18.631 49.7339L18.5379 49.5743L18.4879 49.4879L18.3957 49.3185L18.3051 49.15L18.1275 48.8095L18.0404 48.6384L17.9551 48.4663L17.8706 48.2943L17.7869 48.1222L17.7042 47.9475L17.6533 47.8334L17.5835 47.6783L17.5085 47.5018L17.4352 47.3253L17.3619 47.1479L17.2903 46.9696L17.2205 46.7914L17.1515 46.6122L17.0834 46.433L17.017 46.2538L16.9515 46.0729L16.9101 45.9525L16.8532 45.7814L16.7946 45.5995L16.7377 45.4159L16.6816 45.2332L16.6264 45.0487L16.573 44.8641L16.5204 44.6805L16.4687 44.4951L16.4186 44.3097L16.3704 44.1252L16.335 43.9825L16.2954 43.8167L16.2531 43.6286L16.2126 43.4423L16.1721 43.2534L16.1341 43.0662L16.0962 42.8772L16.06 42.6891L16.0263 42.4992L15.9919 42.3111L15.9591 42.1213L15.9289 41.9368L15.9082 41.7995L15.8832 41.6087L15.8582 41.4188L15.8349 41.2272L15.8125 41.0373L15.7918 40.8457L15.772 40.6558L15.753 40.4641L15.7358 40.2734L15.7185 40.0817L15.7039 39.8901L15.6918 39.7154L15.6823 39.5585L15.6737 39.3659L15.6668 39.1752L15.6608 38.9835L15.6556 38.7919L15.6522 38.5993L15.6496 38.4086L15.6478 38.216L15.647 38.0244L15.6478 37.8327L15.6504 37.6428L15.6539 37.4663L15.6591 37.3059L15.6668 37.1151L15.6772 36.9235L15.6884 36.7327L15.7004 36.5429L15.7134 36.3512L15.728 36.1622L15.7435 35.9715L15.7599 35.7816L15.7772 35.5917L15.797 35.4018L15.816 35.2236L15.8349 35.0676L15.8599 34.8795L15.8867 34.6914L15.9151 34.5024L15.9444 34.3152L15.9738 34.1271L16.0048 33.9408L16.0376 33.7536L16.0703 33.5673L16.1048 33.381L16.141 33.1956L16.1764 33.0155L16.2074 32.8694L16.2497 32.6866L16.2936 32.503L16.3178 32.4032L16.3385 32.3194L16.3661 32.207L16.3781 32.1295L16.4014 31.9949L16.4212 31.8781L16.4514 31.7257L16.4816 31.5741L16.5126 31.4226L16.5454 31.2702L16.5782 31.1186L16.6126 30.968L16.648 30.8164L16.6842 30.6658L16.7213 30.516L16.7575 30.3752L16.7842 30.2763L16.8273 30.1274L16.8713 29.9794L16.917 29.8305L16.9618 29.6826L17.0092 29.5346L17.1058 29.2404L17.1558 29.0934L17.2076 28.9472L17.2541 28.8179L17.2895 28.7243L17.3472 28.579L17.4041 28.4355L17.4628 28.2911L17.5835 28.0058L17.6455 27.8641L17.7085 27.7215L17.7723 27.5797L17.837 27.4389L17.8723 27.3658L17.9387 27.2321L18.0094 27.0948L18.0818 26.9558L18.1542 26.8185L18.2284 26.6821L18.3034 26.5448L18.3793 26.4102L18.456 26.2747L18.5345 26.1392L18.5784 26.0652L18.6491 25.9494L18.7336 25.8174L18.8199 25.6864L18.9052 25.5563L18.9923 25.4261L19.0802 25.2969L19.1699 25.1676L19.2587 25.041L19.3475 24.9162L19.4372 24.7923L19.4639 24.7576L19.4708 24.7504L19.5493 24.6452L19.5708 24.6212L19.6441 24.524L19.6717 24.4937L19.7381 24.4046L19.7734 24.3662L19.8338 24.2851L19.8752 24.2396L19.9295 24.1674L19.9778 24.1148L20.0269 24.0507L20.083 23.9883L20.1313 23.9241L20.1994 23.8492L20.2408 23.7948L20.3175 23.711L20.3511 23.6665L20.4356 23.5738L20.4606 23.5399L20.5537 23.4383L20.5632 23.4258L20.646 23.3358L20.8736 23.1004L20.9866 22.9845L21.1012 22.8704L21.2176 22.7572L21.2995 22.6779L21.3332 22.6449L21.4487 22.5344L21.566 22.4247L21.6694 22.332L21.7487 22.2616L21.8677 22.16L21.9884 22.0593L22.1074 21.9612L22.229 21.8632L22.3505 21.766L22.4721 21.6706L22.5946 21.5761L22.717 21.4834L22.7816 21.4362L22.8963 21.355L23.0205 21.2695L23.1455 21.1857L23.2722 21.1028L23.3981 21.0199L23.524 20.9397L23.6516 20.8603L23.7792 20.7819L23.8982 20.7106L23.9525 20.6794L24.081 20.608L24.2112 20.5385L24.3414 20.4699L24.4707 20.403L24.6017 20.3362L24.7328 20.2702L24.8638 20.2069L24.9949 20.1445L25.0466 20.1204L25.1648 20.0687L25.2984 20.0126L25.432 19.9582L25.5657 19.9047L25.6993 19.8521L25.8338 19.8004L25.9683 19.7505L26.1028 19.7024L26.2382 19.6542L26.2692 19.6435L26.4055 19.6008L26.5417 19.5598L26.677 19.5214L26.8141 19.4822L26.9504 19.4448L27.0883 19.4082L27.2254 19.3726L27.3634 19.3378L27.4987 19.3048L27.5263 19.2995L27.6643 19.2718L27.8039 19.2451L27.9419 19.2201L28.0807 19.1952L28.2204 19.172L28.3592 19.1497L28.498 19.1283L28.6377 19.1087L28.7774 19.0891L28.8093 19.0855L28.9386 19.0722L29.0791 19.0597L29.2188 19.0481L29.3593 19.0383L29.499 19.0285L29.6395 19.0196L29.7809 19.0124L29.9215 19.0062L30.2026 18.9973H30.2207L30.3603 18.9982L30.5017 19L30.6431 19.0026L30.7837 19.0071L30.9242 19.0124L31.0648 19.0187L31.2053 19.0258L31.3458 19.0347L31.4864 19.0436L31.6278 19.0534L31.6536 19.0561L31.7821 19.0695L31.9226 19.0855L32.0632 19.1034L32.2029 19.1212L32.3434 19.1408L32.4839 19.1613L32.6227 19.1827L32.7633 19.205L32.9038 19.2282L33.0435 19.2531L33.1832 19.2781L33.1996 19.2816L33.3323 19.3093L33.4711 19.3405L33.6091 19.3735L33.7479 19.4064L33.8859 19.4403L34.0247 19.4751L34.1626 19.5116L34.3006 19.5482L34.4377 19.5865L34.5756 19.6257L34.7127 19.6649L34.836 19.7033L34.8541 19.7077L34.9903 19.7532L35.1266 19.8004L35.2619 19.8477L35.3964 19.8958L35.5327 19.9448L35.6672 19.9957L35.8017 20.0465L35.9353 20.0982L36.0707 20.1516L36.2043 20.2051L36.3379 20.2604L36.4543 20.3103L36.4655 20.3157L36.5983 20.3754L36.7294 20.4369L36.8604 20.4984L36.9915 20.5617L37.1217 20.625L37.3821 20.7551L37.5105 20.822L37.6407 20.8888L37.8977 21.0261L38.0141 21.0912L38.1365 21.1625L38.2624 21.2374L38.3874 21.3132L38.5124 21.3898L38.7607 21.5467L38.8831 21.626L39.0073 21.7063L39.1297 21.7874L39.2522 21.8685L39.3746 21.9514L39.4824 22.0281L39.5867 22.102L39.7048 22.1912L39.8229 22.2794L39.9402 22.3704L40.0575 22.4604L40.1739 22.5531L40.2894 22.6449L40.5205 22.8321L40.6343 22.9275L40.7481 23.0229L40.8584 23.1174L40.93 23.1807L40.9498 23.202L41.0395 23.2814L41.0654 23.3099L41.149 23.3848L41.1809 23.4195L41.2576 23.4864L41.2964 23.5292L41.3654 23.5898L41.4111 23.6388L41.4732 23.6941L41.5249 23.7503L41.5801 23.7984L41.6379 23.8626L41.6861 23.9054L41.7508 23.9749L41.7913 24.0114L41.8629 24.089L41.8974 24.1193L41.9741 24.2022L42.0008 24.2263L42.0853 24.3172L42.0974 24.3279L42.1647 24.401L42.2647 24.5142L42.363 24.6274L42.4621 24.7424L42.5147 24.8048L42.5595 24.8574L42.657 24.9742L42.8501 25.2077L42.9441 25.3254L43.0389 25.4448L43.1329 25.5652L43.201 25.6561L43.2855 25.7711L43.3735 25.8968L43.4614 26.0216L43.5485 26.1473L43.6347 26.2738L43.7209 26.4013L43.8046 26.5288L43.889 26.6562L43.9718 26.7864L44.0546 26.9156L44.1089 27.0048L44.1167 27.0182L44.1943 27.1519L44.2701 27.2856L44.3469 27.4211L44.4219 27.5566L44.496 27.6938L44.5693 27.8302L44.6418 27.9684L44.7133 28.1057L44.7849 28.2456L44.8444 28.3686L44.909 28.5077L44.9737 28.6503L45.0375 28.7947L45.0996 28.9383L45.2237 29.2289L45.2832 29.375L45.3427 29.523L45.4013 29.6692L45.4522 29.8109L45.5048 29.9607L45.5557 30.1122L45.6074 30.2647L45.6574 30.418L45.754 30.7246L45.8005 30.8788L45.8462 31.0348L45.8531 31.0607L45.8902 31.1953L45.9307 31.3549L46.0066 31.6722L46.0437 31.8327L46.0523 31.8719L46.0514 31.8576L46.0282 31.6597Z" fill="#C3C2F2"/>
<path fill-rule="evenodd" clip-rule="evenodd" d="M66.0438 61.2811L66.0395 61.1162L66.0344 60.9504L66.0309 60.7864L66.0257 60.6206L66.0214 60.4548L66.0162 60.2908L66.0119 60.125L66.0068 59.961L66.0024 59.7952L65.9973 59.6303L65.9938 59.4654L65.9887 59.3004L65.9843 59.1355L65.9792 58.9697L65.9749 58.8048L65.9697 58.6399L65.9654 58.475L65.9602 58.3101L65.9567 58.1452L65.9524 57.9803L65.9473 57.8154L65.943 57.6496L65.9378 57.4846L65.9335 57.3197L65.9283 57.1539L65.9154 56.6592L65.9102 56.4943L65.9059 56.3294L65.9007 56.1645L65.8964 55.9987L65.8912 55.8347L65.8878 55.6688L65.8826 55.5039L65.8783 55.339L65.8731 55.1741L65.8688 55.0092L65.8636 54.8443L65.8593 54.6785L65.8542 54.5136L65.8507 54.3487L65.8455 54.1838L65.8412 54.0189L65.836 53.8531L65.8274 53.5232L65.8222 53.3592L65.8093 52.8636L65.8041 52.6978L65.7998 52.5329L65.7947 52.368L65.7903 52.2039L65.7852 52.0381L65.7722 51.5425L65.7671 51.3776L65.7628 51.2127L65.7576 51.0487L65.7533 50.882L65.7481 50.718L65.7446 50.5531L65.7395 50.3873L65.7352 50.2224L65.73 50.0574L65.7257 49.8925L65.7205 49.7267L65.7119 49.3978L65.7076 49.232L65.7033 49.0671L65.6981 48.9022L65.6938 48.7364L65.6886 48.5715L65.6843 48.4066L65.6791 48.2416L65.6662 47.7469L65.661 47.5811L65.6567 47.4162L65.6515 47.2513L65.6472 47.0855L65.6421 46.9215L65.6291 46.4258L65.6239 46.2609L65.6196 46.0969L65.6145 45.9311L65.6101 45.7662L65.605 45.6004L65.6007 45.4355L65.5972 45.2715L65.592 45.1057L65.5877 44.9408L65.5826 44.7767L65.5782 44.61L65.5731 44.4451L65.5601 43.9504L65.555 43.7846L65.5507 43.6215L65.5455 43.4548L65.5412 43.2908L65.536 43.1259L65.5231 42.6293L65.5179 42.4653L65.5136 42.2995L65.5084 42.1346L65.5041 41.9697L65.4989 41.8048L65.4817 41.1443L65.4765 40.9793L65.4722 40.8144L65.467 40.6495L65.4627 40.4837L65.4575 40.3197L65.4541 40.1539L65.4489 39.989L65.4446 39.825L65.4394 39.6583L65.4351 39.4943L65.43 39.3285L65.417 38.8337L65.4118 38.6688L65.4075 38.5039L65.4024 38.339L65.398 38.1741L65.3929 38.0083L65.3799 37.5127L65.3748 37.3486L65.3705 37.1828L65.3653 37.0179L65.3567 36.6881L65.3515 36.5241L65.348 36.3574L65.3429 36.1934L65.3386 36.0285L65.3342 35.704L65.3308 35.4972L65.3265 35.2904L65.3205 35.0845L65.3136 34.8803L65.3049 34.6762L65.2954 34.4712L65.273 34.0665L65.2601 33.8632L65.2308 33.4612L65.2135 33.2615C65.198 32.9246 65.1678 32.5885 65.1221 32.2551L65.0808 31.8576L65.0592 31.6597L65.0109 31.2657L64.9859 31.0705L64.9307 30.68L64.9023 30.4857L64.8721 30.2923L64.8411 30.0997L64.8092 29.9063L64.7747 29.7155C64.7307 29.3839 64.6704 29.0541 64.5962 28.7287L64.56 28.538L64.5229 28.349L64.4841 28.16L64.4031 27.7838L64.3608 27.5975L64.3177 27.4103L64.2737 27.2249L64.2298 27.0404L64.1841 26.8559L64.0892 26.4886C64.0159 26.1642 63.928 25.8433 63.8263 25.5268L63.7745 25.345L63.7237 25.1658L63.6693 24.9848L63.6159 24.8057L63.5607 24.6274L63.5047 24.4491L63.4478 24.2726L63.39 24.0952L63.3314 23.9196L63.271 23.744L63.2107 23.5693L63.1494 23.3954L63.0856 23.2225C62.9848 22.907 62.8701 22.5976 62.739 22.2928L62.6744 22.1216L62.608 21.9514L62.5407 21.7811L62.4726 21.6117L62.4036 21.4433L62.3329 21.2757L62.2614 21.1081L62.1898 20.9414L62.1165 20.7756L62.0441 20.6107L61.8941 20.2826L61.8174 20.1195L61.7398 19.9573C61.6113 19.6551 61.4682 19.3583 61.3104 19.0694L61.2302 18.909L61.1492 18.7494L61.0681 18.5908L60.9862 18.433L60.9026 18.2752L60.8189 18.1183L60.7344 17.9623L60.6482 17.8081L60.562 17.653L60.4749 17.4988L60.387 17.3455L60.2094 17.0424C60.0524 16.7545 59.8834 16.4728 59.6989 16.2L59.6067 16.0502L59.5136 15.9014L59.4213 15.7543L59.3265 15.6072L59.2316 15.461L59.1351 15.3148L59.0394 15.1704L58.9419 15.026L58.8436 14.8816L58.7445 14.739L58.6453 14.5973L58.5453 14.4564L58.4436 14.3156L58.3427 14.1756L58.2392 14.0366C58.0565 13.7647 57.8599 13.5035 57.6486 13.2486L57.5452 13.1131L57.44 12.9767L57.3339 12.8421L57.227 12.7075L57.1201 12.5746L57.0115 12.4409L56.9037 12.3099L56.7942 12.178L56.6838 12.0469L56.5726 11.9168L56.4614 11.7884L56.3493 11.6592L56.2372 11.5326L56.1234 11.406L56.0096 11.2785C55.801 11.0289 55.5794 10.7874 55.3449 10.5565L55.3405 10.5529L55.2362 10.4397L55.225 10.429L55.1267 10.323L55.1086 10.3069L55.0172 10.2071L54.9914 10.1848L54.9069 10.093L54.8732 10.0636L54.7956 9.97887L54.7551 9.94232L54.6835 9.86566L54.637 9.82377L54.5715 9.75335L54.5171 9.70521L54.4594 9.64192L54.3973 9.58665L54.3456 9.53049L54.2766 9.46899L54.2309 9.42085L54.155 9.3531L54.1162 9.31032L54.0326 9.23722L54.0007 9.20156L53.9102 9.12134L53.8852 9.09459L53.7869 9.00902L53.7688 8.98763L53.6644 8.89492L53.6506 8.88066L53.5394 8.7826L53.5334 8.77547C53.3006 8.54727 53.0592 8.33422 52.8117 8.13633L52.6858 8.02758L52.5591 7.91794L52.4332 7.81008L52.3056 7.70222L52.178 7.59614L52.0495 7.49006L51.9202 7.38488L51.7909 7.28058L51.6607 7.17718L51.5296 7.07467L51.3994 6.97215L51.2675 6.87143L51.1356 6.77159L51.0028 6.67175L50.9744 6.65036L50.8701 6.5728L50.7356 6.47564C50.4872 6.27775 50.232 6.09501 49.9717 5.92921L49.8354 5.83294L49.7009 5.73934L49.5656 5.64574L49.4285 5.55303L49.2922 5.46122L49.1543 5.37119L49.0163 5.28026L48.8784 5.19112L48.7404 5.10287L48.6016 5.01551L48.4611 4.92816L48.3223 4.84347L48.1809 4.7579L48.0403 4.67321L47.8989 4.59121L47.7575 4.5083L47.6161 4.42719C47.3558 4.26049 47.0911 4.11163 46.8203 3.97792L46.6763 3.89858L46.5332 3.82014L46.3892 3.74259L46.2444 3.66682L46.1004 3.59194L45.9555 3.51706L45.8098 3.44307L45.665 3.37087L45.5184 3.29866L45.3718 3.22735L45.2253 3.15782L45.0778 3.08829L44.9304 3.02055L44.7821 2.9528L44.6338 2.88594L44.4846 2.81998C44.2165 2.68716 43.9423 2.5686 43.6664 2.46609L43.5164 2.4028L43.3672 2.34129L43.2181 2.27979L43.0672 2.21917L42.9163 2.16034L42.7654 2.1024L42.6137 2.04445L42.4628 1.9883L42.311 1.93214L42.1584 1.87776L42.0058 1.82339L41.8532 1.7699L41.7006 1.7182L41.5471 1.66739L41.3937 1.61747L41.2402 1.56755C40.9643 1.46593 40.6858 1.37857 40.4039 1.30637L40.2495 1.26002L40.0952 1.21455L39.9409 1.17087L39.7857 1.1272L39.6296 1.08441L39.4753 1.04251L39.3192 1.00151L39.1632 0.961394L39.0071 0.922172L38.8511 0.884733L38.6933 0.847294L38.5372 0.810746L38.3803 0.775981L38.2234 0.742108L38.0665 0.709126C37.7862 0.636922 37.5043 0.580763 37.2206 0.538867L37.0689 0.509451L37.0629 0.507668L36.9042 0.479143L36.7464 0.450618L36.5887 0.423876L36.4309 0.396242L36.2714 0.371283L36.1127 0.347215L35.9549 0.323147L35.7946 0.300861L35.6368 0.279468L35.4773 0.258074L35.3178 0.239354L35.1583 0.219743L34.9988 0.202807L34.8401 0.18587C34.5573 0.143974 34.2728 0.117231 33.9883 0.105643L33.8296 0.092272L33.6693 0.0797923L33.5098 0.0673126L33.3494 0.0575071L33.1899 0.0477017L33.0287 0.0387876L32.87 0.0307649L32.7088 0.0245251L32.5484 0.0191766L32.388 0.0147196L32.2277 0.011154L32.0673 0.00847973L31.9061 0.00669692H31.5845C31.3017 -0.00489138 31.0189 -0.00132575 30.7369 0.0165024L30.5757 0.020068L30.4162 0.0245251L30.255 0.0298735L30.0955 0.0370048L29.9342 0.0450274L29.7739 0.0539415L29.6135 0.0628556L29.4523 0.0735525L29.2928 0.0860322L29.1315 0.0985119L28.9712 0.112774L28.8108 0.127928L28.6496 0.143974L28.4901 0.16091C28.2081 0.178739 27.9279 0.210829 27.6494 0.258074L27.489 0.278576L27.3295 0.29997L27.1692 0.321364L27.0097 0.345432L26.8502 0.370391L26.6907 0.395351L26.5303 0.422984L26.3716 0.449726L26.2113 0.479143L26.0509 0.508559L25.8931 0.54065L25.7336 0.571849L25.5741 0.605723C25.2956 0.652076 25.0206 0.7118 24.7481 0.78757L24.5895 0.823226L24.4308 0.860665L24.2739 0.899887L24.1144 0.939109L23.9575 0.980114L23.7997 1.02201L23.6411 1.0648L23.4841 1.10848L23.3264 1.15394L23.1694 1.20029L23.0125 1.24843L22.8547 1.29567L22.6987 1.34648L22.5418 1.39729C22.3978 1.43562 22.2581 1.49089 22.1158 1.53903L22.2098 1.56755L22.5168 1.66739L22.6702 1.7182L22.8228 1.7699L22.9755 1.82339L23.2807 1.93214L23.4316 1.9883L23.5833 2.04445L23.8868 2.16034L24.0368 2.21917L24.1868 2.27979L24.3369 2.34129L24.486 2.4028L24.636 2.46609C24.9128 2.5686 25.1861 2.68716 25.4551 2.81998L25.6034 2.88594L25.7517 2.9528L25.9 3.02055L26.0475 3.08829L26.194 3.15782L26.3406 3.22735L26.488 3.29866L26.7795 3.44307L26.9252 3.51706L27.0709 3.59194L27.2149 3.66682L27.3589 3.74259L27.5028 3.82014L27.646 3.89858L27.79 3.97792C28.0607 4.11163 28.3254 4.26049 28.5858 4.42719L28.7272 4.5083L28.8686 4.59121L29.01 4.67321L29.1505 4.7579L29.291 4.84347L29.4307 4.92816L29.7101 5.10287L29.8489 5.19112L29.9868 5.28026L30.1239 5.37119L30.261 5.46122L30.3981 5.55303L30.5352 5.64574L30.8059 5.83294L30.9404 5.92921C31.2017 6.09501 31.4569 6.27775 31.7052 6.47564L31.8388 6.5728L31.9725 6.67175L32.1052 6.77159L32.2363 6.87143L32.3691 6.97215L32.5001 7.07467L32.6295 7.17718L32.7605 7.28058L32.8907 7.38488L33.0183 7.49006L33.1476 7.59614L33.2744 7.70222L33.4028 7.81008L33.5287 7.91794L33.6563 8.02758L33.7805 8.13633C34.0288 8.33422 34.2702 8.54727 34.503 8.77547L34.509 8.7826L34.6211 8.88066L34.6332 8.89492L34.7384 8.98763L34.7574 9.00902L34.8539 9.09459L34.8806 9.12134L34.9703 9.20156L35.0031 9.23722L35.0858 9.31032L35.1246 9.3531L35.2005 9.42085L35.2462 9.46899L35.3152 9.53049L35.3669 9.58665L35.4281 9.64192L35.4868 9.70521L35.5411 9.75335L35.6058 9.82377L35.6532 9.86566L35.7247 9.94232L35.7653 9.97887L35.8437 10.0636L35.8765 10.093L35.961 10.1848L35.9868 10.2071L36.0782 10.3069L36.0972 10.323L36.1946 10.429L36.2058 10.4397L36.3102 10.5529L36.3145 10.5565C36.549 10.7874 36.7706 11.0289 36.9784 11.2785L37.093 11.406L37.2068 11.5326L37.3189 11.6592L37.431 11.7884L37.5431 11.9168L37.6526 12.0469L37.763 12.178L37.8725 12.3099L37.9811 12.4409L38.0889 12.5746L38.1966 12.7075L38.4087 12.9767L38.5139 13.1131L38.6191 13.2486C38.8295 13.5035 39.0261 13.7647 39.2089 14.0366L39.3115 14.1756L39.4132 14.3156L39.5149 14.4564L39.615 14.5973L39.7141 14.739L39.8124 14.8816L39.9116 15.026L40.009 15.1704L40.1047 15.3148L40.2013 15.461L40.2961 15.6072L40.3901 15.7543L40.4832 15.9014L40.5763 16.0502L40.6677 16.2C40.8522 16.4728 41.0229 16.7545 41.1781 17.0424L41.2678 17.1939L41.3566 17.3455L41.4445 17.4988L41.5316 17.653L41.6187 17.8081L41.7041 17.9623L41.7886 18.1183L41.8722 18.2752L41.9558 18.433L42.0377 18.5908L42.1188 18.7494L42.1998 18.909L42.2352 18.9794L42.28 19.0694C42.4369 19.3583 42.5801 19.6551 42.7102 19.9573L42.787 20.1195L42.8629 20.2826L43.0129 20.6107L43.0862 20.7756L43.1594 20.9414L43.231 21.1081L43.3026 21.2757L43.3724 21.4433L43.4414 21.6117L43.5095 21.7811L43.5776 21.9514L43.644 22.1216L43.7095 22.2928C43.8389 22.5976 43.9544 22.907 44.0561 23.2225L44.1191 23.3954L44.1803 23.5693L44.2406 23.744L44.3596 24.0952L44.4174 24.2726L44.4752 24.4491L44.5855 24.8057L44.6398 24.9848L44.6924 25.1658L44.7442 25.345L44.7959 25.5268C44.8976 25.8433 44.9847 26.1642 45.058 26.4886L45.1063 26.6723L45.1537 26.8559L45.1985 27.0404L45.2442 27.2249L45.2882 27.4103L45.3313 27.5975L45.3727 27.7838L45.4132 27.9719L45.4529 28.16L45.4917 28.349L45.5288 28.538L45.5658 28.7287C45.64 29.0541 45.6995 29.3839 45.7452 29.7155L45.7779 29.9063L45.8098 30.0997L45.8409 30.2923L45.8719 30.4857L45.9004 30.68L45.928 30.8752L45.9547 31.0705L45.9805 31.2657L46.0047 31.4627L46.028 31.6597L46.0512 31.8576L46.0521 31.8718L46.0797 31.994L46.1142 32.1544L46.147 32.3158L46.1797 32.4798L46.1875 32.5181L46.2125 32.667L46.2392 32.8328L46.2642 32.9986L46.2884 33.1653L46.3108 33.332L46.3332 33.5004L46.3539 33.668L46.3737 33.8365L46.3918 34.0059L46.3961 34.0549L46.4091 34.2252L46.4315 34.571L46.441 34.744L46.4496 34.9196L46.4556 35.0925L46.4617 35.269L46.4668 35.4446L46.4694 35.6059V35.6978L46.4677 35.876L46.4634 36.0597L46.4599 36.2593L46.4582 36.4243L46.4565 36.755L46.4548 36.9208L46.4539 37.0857V37.2506L46.4522 37.4164L46.4504 37.7462L46.4487 37.9111L46.447 38.2418L46.4453 38.4067L46.4435 38.7366L46.4418 38.9024L46.4401 39.2331L46.4384 39.398L46.4367 39.7287L46.4349 39.8936L46.4332 40.2234L46.4315 40.3892V40.4507L46.4306 40.5541L46.4298 40.7191L46.428 40.8849L46.4263 41.2147L46.4246 41.3805L46.4229 41.7103L46.4211 41.8761L46.4194 42.2059L46.4177 42.3708V42.5366L46.4168 42.7007L46.4151 42.8665L46.4134 43.1972L46.4116 43.363L46.4099 43.6928L46.4082 43.8577L46.4065 44.1875L46.4047 44.3533L46.4039 44.5182L46.4022 44.684L46.4004 45.0139L46.3987 45.1788L46.397 45.5104L46.3953 45.6744L46.3935 46.0042L46.3918 46.17L46.3901 46.5007L46.3884 46.6656L46.3866 46.9963L46.3849 47.1604L46.3832 47.492L46.3815 47.6569L46.3806 47.8218V47.9876L46.3789 48.1525L46.378 48.3174L46.3772 48.4832L46.3754 48.6472L46.3737 48.9779L46.372 49.1437L46.3711 49.3087L46.3703 49.4745L46.3685 49.6394L46.3668 49.9701L46.3651 50.1341L46.3634 50.4639L46.3616 50.6297L46.3599 50.9604L46.3582 51.1262L46.3565 51.4569L46.3547 51.621L46.353 51.9517L46.3513 52.1166L46.3496 52.4473L46.3478 52.6122L46.3461 52.9429L46.3444 53.1069L46.3435 53.2727V53.4377L46.3418 53.6035L46.3409 53.7024V53.7675L46.3401 53.9342L46.3384 54.0991L46.3366 54.4289L46.3349 54.5947L46.3332 54.9236L46.3315 55.0903L46.3297 55.4201L46.328 55.5859L46.3263 55.9167L46.3246 56.0807L46.3228 56.4114L46.3211 56.5763L46.3203 56.7412L46.3185 56.907L46.3168 57.2368L46.3151 57.4026L46.3134 57.7325L46.3116 57.8983L46.3108 58.0632V58.2272L46.309 58.3939L46.3073 58.7237L46.3056 58.8886L46.3039 59.2193L46.3021 59.3842L46.3004 59.7141L46.2987 59.8799L46.297 60.2097L46.2952 60.3764L46.2935 60.7062L46.2918 60.8702L46.2901 61.2009L46.2884 61.3667L46.2875 61.5307C46.2409 62.6842 46.3625 63.8395 46.6367 64.9538C47.1204 66.9184 48.0938 68.7538 49.5543 70.2104C53.617 74.26 59.8714 73.8527 63.5245 69.3003C65.361 67.0129 66.1887 64.114 66.0438 61.2811Z" fill="#4746BD"/>
<path d="M99.784 32.56C99.4293 31.9067 98.916 31.412 98.244 31.076C97.5907 30.7213 96.816 30.544 95.92 30.544C94.3707 30.544 93.1293 31.0573 92.196 32.084C91.2627 33.092 90.796 34.4453 90.796 36.144C90.796 37.9547 91.2813 39.3733 92.252 40.4C93.2413 41.408 94.5947 41.912 96.312 41.912C97.488 41.912 98.4773 41.6133 99.28 41.016C100.101 40.4187 100.699 39.56 101.072 38.44H94.996V34.912H105.412V39.364C105.057 40.5587 104.451 41.6693 103.592 42.696C102.752 43.7227 101.679 44.5533 100.372 45.188C99.0653 45.8227 97.5907 46.14 95.948 46.14C94.0067 46.14 92.2707 45.72 90.74 44.88C89.228 44.0213 88.0427 42.836 87.184 41.324C86.344 39.812 85.924 38.0853 85.924 36.144C85.924 34.2027 86.344 32.476 87.184 30.964C88.0427 29.4333 89.228 28.248 90.74 27.408C92.252 26.5493 93.9787 26.12 95.92 26.12C98.272 26.12 100.251 26.6893 101.856 27.828C103.48 28.9667 104.553 30.544 105.076 32.56H99.784ZM123.492 30.376V46H118.704V43.872C118.219 44.5627 117.556 45.1227 116.716 45.552C115.895 45.9627 114.98 46.168 113.972 46.168C112.777 46.168 111.723 45.9067 110.808 45.384C109.893 44.8427 109.184 44.068 108.68 43.06C108.176 42.052 107.924 40.8667 107.924 39.504V30.376H112.684V38.86C112.684 39.9053 112.955 40.7173 113.496 41.296C114.037 41.8747 114.765 42.164 115.68 42.164C116.613 42.164 117.351 41.8747 117.892 41.296C118.433 40.7173 118.704 39.9053 118.704 38.86V30.376H123.492ZM131.719 32.588C132.186 31.86 132.83 31.272 133.651 30.824C134.473 30.376 135.434 30.152 136.535 30.152C137.823 30.152 138.99 30.4787 140.035 31.132C141.081 31.7853 141.902 32.7187 142.499 33.932C143.115 35.1453 143.423 36.5547 143.423 38.16C143.423 39.7653 143.115 41.184 142.499 42.416C141.902 43.6293 141.081 44.572 140.035 45.244C138.99 45.8973 137.823 46.224 136.535 46.224C135.453 46.224 134.491 46 133.651 45.552C132.83 45.104 132.186 44.5253 131.719 43.816V53.448H126.931V30.376H131.719V32.588ZM138.551 38.16C138.551 36.9653 138.215 36.032 137.543 35.36C136.89 34.6693 136.078 34.324 135.107 34.324C134.155 34.324 133.343 34.6693 132.671 35.36C132.018 36.0507 131.691 36.9933 131.691 38.188C131.691 39.3827 132.018 40.3253 132.671 41.016C133.343 41.7067 134.155 42.052 135.107 42.052C136.059 42.052 136.871 41.7067 137.543 41.016C138.215 40.3067 138.551 39.3547 138.551 38.16ZM150.723 32.588C151.19 31.86 151.834 31.272 152.655 30.824C153.477 30.376 154.438 30.152 155.539 30.152C156.827 30.152 157.994 30.4787 159.039 31.132C160.085 31.7853 160.906 32.7187 161.503 33.932C162.119 35.1453 162.427 36.5547 162.427 38.16C162.427 39.7653 162.119 41.184 161.503 42.416C160.906 43.6293 160.085 44.572 159.039 45.244C157.994 45.8973 156.827 46.224 155.539 46.224C154.457 46.224 153.495 46 152.655 45.552C151.834 45.104 151.19 44.5253 150.723 43.816V53.448H145.935V30.376H150.723V32.588ZM157.555 38.16C157.555 36.9653 157.219 36.032 156.547 35.36C155.894 34.6693 155.082 34.324 154.111 34.324C153.159 34.324 152.347 34.6693 151.675 35.36C151.022 36.0507 150.695 36.9933 150.695 38.188C150.695 39.3827 151.022 40.3253 151.675 41.016C152.347 41.7067 153.159 42.052 154.111 42.052C155.063 42.052 155.875 41.7067 156.547 41.016C157.219 40.3067 157.555 39.3547 157.555 38.16ZM180.899 30.376L171.099 53.42H165.947L169.531 45.468L163.175 30.376H168.523L172.135 40.148L175.719 30.376H180.899ZM196.771 26.344V30.18H191.563V46H186.775V30.18H181.567V26.344H196.771ZM213.901 37.936C213.901 38.384 213.874 38.8507 213.818 39.336H202.982C203.056 40.3067 203.364 41.0533 203.906 41.576C204.466 42.08 205.147 42.332 205.95 42.332C207.144 42.332 207.975 41.828 208.442 40.82H213.538C213.276 41.8467 212.8 42.7707 212.11 43.592C211.438 44.4133 210.588 45.0573 209.562 45.524C208.535 45.9907 207.387 46.224 206.118 46.224C204.587 46.224 203.224 45.8973 202.03 45.244C200.835 44.5907 199.902 43.6573 199.23 42.444C198.558 41.2307 198.222 39.812 198.222 38.188C198.222 36.564 198.548 35.1453 199.202 33.932C199.874 32.7187 200.807 31.7853 202.002 31.132C203.196 30.4787 204.568 30.152 206.118 30.152C207.63 30.152 208.974 30.4693 210.15 31.104C211.326 31.7387 212.24 32.644 212.894 33.82C213.566 34.996 213.901 36.368 213.901 37.936ZM209.002 36.676C209.002 35.8547 208.722 35.2013 208.162 34.716C207.602 34.2307 206.902 33.988 206.062 33.988C205.259 33.988 204.578 34.2213 204.018 34.688C203.476 35.1547 203.14 35.8173 203.01 36.676H209.002ZM215.475 38.188C215.475 36.564 215.802 35.1453 216.455 33.932C217.127 32.7187 218.051 31.7853 219.227 31.132C220.422 30.4787 221.785 30.152 223.315 30.152C225.275 30.152 226.909 30.6653 228.215 31.692C229.541 32.7187 230.409 34.1653 230.819 36.032H225.723C225.294 34.8373 224.463 34.24 223.231 34.24C222.354 34.24 221.654 34.5853 221.131 35.276C220.609 35.948 220.347 36.9187 220.347 38.188C220.347 39.4573 220.609 40.4373 221.131 41.128C221.654 41.8 222.354 42.136 223.231 42.136C224.463 42.136 225.294 41.5387 225.723 40.344H230.819C230.409 42.1733 229.541 43.6107 228.215 44.656C226.89 45.7013 225.257 46.224 223.315 46.224C221.785 46.224 220.422 45.8973 219.227 45.244C218.051 44.5907 217.127 43.6573 216.455 42.444C215.802 41.2307 215.475 39.812 215.475 38.188ZM242.985 30.208C244.777 30.208 246.214 30.8053 247.297 32C248.379 33.176 248.921 34.8 248.921 36.872V46H244.161V37.516C244.161 36.4707 243.89 35.6587 243.349 35.08C242.807 34.5013 242.079 34.212 241.165 34.212C240.25 34.212 239.522 34.5013 238.981 35.08C238.439 35.6587 238.169 36.4707 238.169 37.516V46H233.381V25.28H238.169V32.476C238.654 31.7853 239.317 31.2347 240.157 30.824C240.997 30.4133 241.939 30.208 242.985 30.208ZM254.488 46.224C253.648 46.224 252.957 45.9813 252.416 45.496C251.893 44.992 251.632 44.376 251.632 43.648C251.632 42.9013 251.893 42.276 252.416 41.772C252.957 41.268 253.648 41.016 254.488 41.016C255.309 41.016 255.981 41.268 256.504 41.772C257.045 42.276 257.316 42.9013 257.316 43.648C257.316 44.376 257.045 44.992 256.504 45.496C255.981 45.9813 255.309 46.224 254.488 46.224Z" fill="#4746BD"/>
</svg>
