<svg width="25" height="28" viewBox="0 0 25 28" fill="none" xmlns="http://www.w3.org/2000/svg">
<path fill-rule="evenodd" clip-rule="evenodd" d="M14.4682 21.5625L14.4669 21.5006L14.465 21.3774L14.4612 21.1926L14.4602 21.1306L14.4563 20.9455L14.4554 20.8842L14.4541 20.8226L14.4521 20.6991L14.4483 20.5146L14.4473 20.4527L14.4447 20.3292L14.4438 20.2676L14.4399 20.0831L14.4393 20.0212L14.4354 19.8357L14.4344 19.7744L14.4331 19.7125L14.4318 19.6512L14.4309 19.5896L14.4283 19.4661L14.4264 19.3429L14.4238 19.2194L14.4228 19.1578L14.419 18.9733L14.418 18.911L14.4154 18.7878L14.4135 18.6646L14.4109 18.5414L14.4099 18.4798L14.4087 18.4182L14.4074 18.3563L14.4064 18.2947L14.4025 18.1099L14.4016 18.048L14.4003 17.9867L14.3993 17.9244L14.398 17.8635L14.3971 17.8016L14.3945 17.678L14.3935 17.6164L14.3897 17.4316L14.3887 17.37L14.3861 17.2465L14.3855 17.1846L14.3842 17.1233L14.3829 17.0614L14.3816 17.0001L14.3806 16.9382L14.3781 16.815L14.3771 16.7537L14.3732 16.5682L14.3713 16.445L14.3687 16.3218L14.3678 16.2602L14.3652 16.1367L14.3642 16.0748L14.3616 15.9539V15.9519L14.3603 15.8903L14.3597 15.8284L14.3571 15.7052L14.3562 15.6439L14.3523 15.4584L14.3513 15.3968L14.3475 15.212L14.3455 15.0888L14.3442 15.0272L14.3433 14.9653L14.3407 14.8418L14.3397 14.7805L14.3359 14.5954L14.3349 14.5338L14.3336 14.4722L14.3326 14.4102L14.3314 14.349L14.3304 14.287L14.3291 14.2258C14.3046 13.5145 14.0122 12.8143 13.4589 12.3025C13.0251 11.9013 12.4975 11.6769 11.9591 11.6246C11.324 11.563 10.6753 11.7448 10.1455 12.1547C10.0083 12.2609 9.87693 12.3788 9.75809 12.5159C9.67597 12.6108 9.60447 12.7114 9.53748 12.8143C9.25246 13.2531 9.10463 13.7553 9.09368 14.2591L9.09239 14.321L9.08659 14.6913L9.08595 14.7529L9.08498 14.8145L9.0837 14.8764L9.07403 15.4934L9.07275 15.555L9.0721 15.6166L9.06437 16.1104L9.06308 16.172L9.05825 16.4803L9.05761 16.5423L9.05471 16.7271L9.05342 16.7893L9.04666 17.2212L9.04601 17.2825L9.04408 17.4063L9.04279 17.4679L9.02347 18.7019L9.02218 18.7635L9.02154 18.8018L9.02122 18.8208L9.00543 18.8145L8.9568 18.7902L8.90882 18.7655L8.86566 18.7422L8.82154 18.7172L8.77516 18.6903L8.72846 18.6626L8.68273 18.6347L8.63668 18.6064L8.59126 18.5777L8.50109 18.5191L8.46888 18.4971L8.42734 18.4672L8.38386 18.4352L8.3407 18.4032L8.29787 18.3709L8.21349 18.305L8.1713 18.2714L8.13007 18.2378L8.10334 18.2151L8.10205 18.2134L8.06791 18.1845L8.05858 18.1748L8.02798 18.1485L8.01574 18.1359L7.98837 18.1126L7.97291 18.0966L7.94875 18.0756L7.93072 18.0569L7.90978 18.039L7.88885 18.0167L7.87081 18.0017L7.84698 17.9764L7.83217 17.964L7.80544 17.9357L7.79384 17.9261L7.76421 17.8948L7.75616 17.8881L7.73716 17.8682L7.70173 17.8299L7.66502 17.7896L7.62927 17.7493L7.59384 17.709L7.55809 17.6677L7.52299 17.6264L7.45342 17.5432L7.41928 17.5009L7.39642 17.4716L7.36711 17.4336L7.33458 17.39L7.30238 17.3461L7.27919 17.3134L7.27081 17.3014L7.23893 17.2568L7.20737 17.2122L7.17645 17.1669L7.14585 17.1216L7.11526 17.0757L7.08531 17.0301L7.06469 16.9978L7.03764 16.9535L7.0093 16.9062L6.98128 16.8589L6.95358 16.811L6.92621 16.763L6.89915 16.7147L6.87242 16.6665L6.81961 16.5686L6.79384 16.5193L6.77323 16.4783L6.75165 16.4357L6.7275 16.3851L6.70399 16.3345L6.6808 16.2839L6.65729 16.2329L6.63474 16.182L6.6122 16.1307L6.58998 16.0788L6.5684 16.0275L6.54682 15.9752L6.52524 15.9233L6.50946 15.8826L6.49078 15.832L6.47146 15.7791L6.45278 15.7261L6.43378 15.6729L6.41574 15.6189L6.39771 15.5656L6.37967 15.5117L6.36228 15.4578L6.34553 15.4038L6.32878 15.3495L6.31204 15.2949L6.2998 15.252L6.28563 15.1987L6.27081 15.1434L6.25696 15.0882L6.24312 15.0332L6.22959 14.9776L6.21639 14.922L6.2035 14.8664L6.17903 14.7545L6.16711 14.6986L6.15584 14.6423L6.14714 14.5964L6.13748 14.5428L6.12814 14.4858L6.1101 14.3726L6.10173 14.3157L6.08563 14.2018L6.07822 14.1448L6.07081 14.0876L6.06437 14.0303L6.05761 13.973L6.05278 13.9248L6.04827 13.8725L6.04376 13.8142L6.0399 13.7573L6.03603 13.6997L6.03249 13.6421L6.02669 13.5265L6.02444 13.4686L6.0225 13.4113L6.01928 13.2954L6.01896 13.2478V13.1949L6.02089 13.0793L6.02411 12.9638L6.02862 12.8479L6.03152 12.79L6.03474 12.732L6.03829 12.6748L6.04215 12.6168L6.04569 12.5749L6.05117 12.5189L6.05696 12.461L6.06341 12.4037L6.06985 12.3461L6.07725 12.2882L6.08434 12.2313L6.09239 12.174L6.10044 12.1164L6.10173 12.1074L6.09529 12.1037L6.08627 12.141L6.06985 12.2096L6.05407 12.2779L6.04247 12.3325L6.02927 12.3997L6.01574 12.469L6.00286 12.5386L5.99062 12.6082L5.97838 12.6781L5.96679 12.7477L5.95584 12.818L5.94489 12.8879L5.93426 12.9585L5.92428 13.0287L5.91494 13.099L5.90785 13.1573L5.90077 13.2238L5.89336 13.2948L5.88692 13.3657L5.8808 13.4366L5.875 13.5079L5.86953 13.5785L5.86469 13.6501L5.86019 13.721L5.856 13.7922L5.85213 13.8638L5.84924 13.9351L5.8473 13.995L5.84601 14.0609L5.84505 14.1319L5.84473 14.2035L5.84505 14.275L5.84569 14.347L5.84666 14.4182L5.84795 14.4901L5.84988 14.5617L5.85213 14.6333L5.85471 14.7046L5.85793 14.7765L5.86147 14.8351L5.86598 14.9004L5.87146 14.972L5.8779 15.0435L5.88434 15.1148L5.89143 15.1864L5.89883 15.2573L5.90656 15.3289L5.91494 15.3998L5.92363 15.4714L5.93297 15.5423L5.94231 15.6136L5.95004 15.6649L5.96131 15.7338L5.97355 15.8047L5.98643 15.875L5.99899 15.9459L6.01252 16.0162L6.02669 16.0867L6.04086 16.1567L6.056 16.2273L6.07114 16.2969L6.08692 16.3671L6.10173 16.429L6.11494 16.4823L6.13297 16.5512L6.15165 16.6205L6.17097 16.6898L6.19062 16.7584L6.21059 16.8273L6.2312 16.8962L6.25213 16.9645L6.27339 17.0331L6.29529 17.101L6.31655 17.1649L6.33201 17.2099L6.35648 17.2775L6.38128 17.3444L6.40672 17.4113L6.43249 17.4782L6.45858 17.5448L6.48531 17.6114L6.51268 17.6777L6.54006 17.7436L6.56808 17.8096L6.59416 17.8675L6.61316 17.9101L6.64408 17.9754L6.67532 18.0396L6.70688 18.1039L6.73877 18.1682L6.7713 18.2321L6.83764 18.3593L6.87146 18.4222L6.90592 18.4855L6.9246 18.5178L6.95938 18.5774L6.9961 18.639L7.03378 18.7003L7.07178 18.7612L7.11011 18.8218L7.14907 18.8824L7.18804 18.9427L7.22798 19.0029L7.26792 19.0625L7.29078 19.0948L7.31365 19.1268L7.3275 19.1464L7.37033 19.2047L7.41381 19.2623L7.45761 19.3199L7.50173 19.3769L7.5465 19.4335L7.59159 19.4901L7.63668 19.5457L7.68144 19.6003L7.72717 19.6549L7.74006 19.6699L7.74328 19.6732L7.78353 19.7195L7.79384 19.7295L7.83056 19.7718L7.8444 19.7851L7.87758 19.824L7.89529 19.8404L7.92556 19.8753L7.94618 19.8953L7.97323 19.9269L7.99771 19.9496L8.02218 19.9782L8.0502 20.0045L8.07468 20.0331L8.10817 20.0651L8.12911 20.0891L8.16679 20.1254L8.18353 20.1444L8.22572 20.1843L8.23829 20.199L8.28466 20.2432L8.28949 20.2486L8.33039 20.2875L8.38611 20.3381L8.44215 20.3888L8.49851 20.438L8.55487 20.487L8.61188 20.5356L8.6692 20.5839L8.72589 20.6308L8.78354 20.6778L8.8341 20.7174L8.87275 20.747L8.93104 20.79L8.98965 20.8326L9.04795 20.8742L9.10688 20.9155L9.16614 20.9561L9.22508 20.9964L9.28466 21.0357L9.34424 21.0747L9.37516 21.094L9.43088 21.1276L9.49078 21.1629L9.55165 21.1976L9.61188 21.2322L9.67275 21.2655L9.73362 21.2988L9.79513 21.3314L9.856 21.363L9.91365 21.392L9.93941 21.4047L10.0012 21.4333L10.0631 21.4613L10.1256 21.4889L10.1874 21.5155L10.1916 21.5172L10.2499 21.5418L10.3124 21.5678L10.3748 21.5931L10.4376 21.6174L10.4624 21.6268L10.5185 21.6467L10.5816 21.668L10.6447 21.689L10.7085 21.7093L10.7719 21.729L10.8357 21.7483L10.8988 21.7669L10.9632 21.7852L11.027 21.8029L11.0418 21.8066L11.1056 21.8212L11.1697 21.8359L11.2335 21.8495L11.2985 21.8632L11.3626 21.8758L11.427 21.8881L11.4914 21.9001L11.5562 21.9114L11.6199 21.9221L11.6328 21.9241L11.6979 21.9321L11.7623 21.9401L11.827 21.9471L11.8921 21.9537L11.9571 21.9597L12.0222 21.9657L12.0869 21.9707L12.152 21.9754L12.217 21.9797L12.2318 21.9804L12.2924 21.9824L12.3571 21.9834L12.4222 21.984L12.4876 21.9844L12.5526 21.984L12.6174 21.9834L12.6824 21.9817L12.7481 21.98L12.8128 21.9777L12.8779 21.975L12.8863 21.9744L12.951 21.9694L13.0161 21.9637L13.0811 21.9574L13.1459 21.9511L13.2106 21.9437L13.2753 21.9364L13.3401 21.9284L13.4051 21.9198L13.4695 21.9111L13.5346 21.9015L13.5465 21.8998L13.6054 21.8891L13.6698 21.8768L13.7339 21.8645L13.798 21.8512L13.8624 21.8375L13.9269 21.8235L13.9903 21.8092L14.0544 21.7939L14.1178 21.7786L14.1819 21.7626L14.2457 21.7466L14.2531 21.7446L14.3136 21.727L14.3768 21.708L14.4396 21.6887L14.4705 21.679L14.4692 21.6244L14.4682 21.5625Z" fill="#4746BD"/>
<path fill-rule="evenodd" clip-rule="evenodd" d="M17.1932 11.826L17.1845 11.7525L17.1755 11.6789L17.1658 11.606L17.1558 11.533L17.1455 11.4601L17.1349 11.3875L17.1233 11.3153L17.1117 11.2433L17.0998 11.1711L17.0875 11.0998C17.0705 10.976 17.0483 10.8528 17.0206 10.7312L17.0067 10.66L16.9929 10.5894L16.9784 10.5188L16.9636 10.4485L16.9484 10.3783L16.933 10.3087L16.9169 10.2388L16.9004 10.1695L16.8834 10.1006L16.8666 10.0317L16.8489 9.96306L16.8309 9.89447C16.8035 9.77327 16.771 9.6534 16.733 9.53519L16.7136 9.46727L16.6943 9.40034L16.6747 9.33275L16.6544 9.26582L16.6132 9.13263L16.5916 9.0667L16.57 9.00044L16.5256 8.86925L16.503 8.80398L16.4801 8.73905L16.4566 8.67446C16.4186 8.55659 16.3755 8.44104 16.3272 8.32717L16.3027 8.26324L16.2779 8.19964L16.2524 8.13604L16.227 8.07278L16.2012 8.00984L16.1751 7.94724L16.1484 7.88465L16.1217 7.82238L16.0943 7.76045L16.0669 7.69885L16.0109 7.57631L15.9826 7.51538L15.9539 7.45478C15.9053 7.3419 15.8518 7.23102 15.7932 7.12314L15.7764 7.08951L15.7632 7.0632L15.733 7.0036L15.7027 6.94433L15.6721 6.88539L15.6408 6.82646L15.6096 6.76785L15.578 6.70958L15.5462 6.65198L15.5136 6.59404L15.4811 6.53644L15.4483 6.47917L15.4151 6.42256L15.3816 6.36596C15.3236 6.25841 15.2599 6.15319 15.1909 6.0513L15.1568 5.99536L15.122 5.93975L15.0872 5.88481L15.0521 5.82987L15.0167 5.77526L14.9806 5.72065L14.9449 5.66671L14.9085 5.61277L14.8714 5.55883L14.8347 5.50555L14.7977 5.45261L14.7603 5.4L14.7223 5.34739L14.6843 5.29511L14.646 5.24317C14.5777 5.14161 14.5043 5.04405 14.4257 4.94882L14.3864 4.89821L14.3471 4.84727L14.2679 4.74671L14.2276 4.6971L14.1874 4.64715L14.1468 4.5982L14.1059 4.54892L14.0647 4.49998L14.0238 4.45136L13.9819 4.40341L13.94 4.35513L13.8982 4.30785L13.8557 4.26057L13.8128 4.21295C13.7352 4.11972 13.6524 4.02948 13.5648 3.94324L13.5632 3.94191L13.5243 3.89963L13.5201 3.89563L13.4837 3.85601L13.4766 3.85001L13.4425 3.81272L13.4328 3.80439L13.4012 3.7701L13.389 3.75911L13.3597 3.72748L13.3446 3.71383L13.3178 3.68519L13.3001 3.66954L13.276 3.64324L13.2557 3.62526L13.2338 3.60161L13.2109 3.58097L13.1916 3.55999L13.1658 3.53702L13.1487 3.51904L13.1204 3.49373L13.1059 3.47775L13.075 3.45044L13.0627 3.43713L13.0293 3.40716L13.0193 3.39717L12.9832 3.3652L12.9761 3.35721L12.9368 3.32258L12.9323 3.31726L12.8904 3.28063L12.8882 3.27796C12.8012 3.19272 12.7111 3.11314 12.6183 3.03922L12.5719 2.9986L12.5243 2.95764L12.4772 2.91736L12.4293 2.87707L12.3819 2.83744L12.3336 2.79782L12.2859 2.75853L12.2373 2.71957L12.1884 2.68094L12.14 2.64265L12.0911 2.60436L12.0415 2.56673L11.9925 2.52944L11.9429 2.49215L11.893 2.45519L11.8431 2.41889C11.7503 2.34497 11.655 2.27671 11.5574 2.21478L11.5072 2.17882L11.4061 2.1089L11.3549 2.07427L11.3037 2.03997L11.2524 2.00634L11.2012 1.97238L11.1497 1.93908L11.0979 1.90612L10.9935 1.84085L10.9413 1.80922L10.8888 1.77726L10.8363 1.74562L10.7835 1.71499L10.7307 1.68402L10.6779 1.65372C10.5806 1.59146 10.4818 1.53585 10.3806 1.4859L10.3268 1.45627L10.2734 1.42697L10.2196 1.398L10.1658 1.3697L10.112 1.34173L10.0576 1.31376L10.0032 1.28612L9.89431 1.23218L9.83924 1.20554L9.78449 1.17957L9.72974 1.1536L9.67467 1.12829L9.61927 1.10299L9.56388 1.07801L9.50848 1.05337C9.408 1.00376 9.30591 0.959474 9.20252 0.921182L9.14649 0.897541L9.09077 0.874566L9.03473 0.851591L8.97869 0.828949L8.92265 0.806972L8.80929 0.763686L8.7526 0.742709L8.69624 0.721731L8.58223 0.681109L8.52523 0.66113L8.46822 0.641818L8.4109 0.622838L8.29624 0.585545L8.26114 0.57489C8.2138 0.590873 8.16613 0.603859 8.11943 0.621839L8.06146 0.642151L8.00349 0.662462L7.9452 0.683772L7.88755 0.705083L7.82958 0.727059L7.77161 0.749035L7.71428 0.771677L7.65631 0.794985L7.59866 0.818626L7.54165 0.8426L7.48401 0.86724L7.42668 0.89188L7.35647 0.92318C7.26243 0.96014 7.16967 1.00176 7.07853 1.04871L7.02185 1.07502L6.96581 1.10199L6.90913 1.12929L6.85244 1.15726L6.79608 1.18523L6.73972 1.21387L6.68368 1.24317L6.62764 1.27247L6.57161 1.30244L6.51589 1.33274L6.46017 1.3637L6.40446 1.39534C6.30945 1.44362 6.21637 1.49723 6.12555 1.55649L6.07016 1.58913L6.01541 1.62176L5.96066 1.65505L5.90623 1.68868L5.85148 1.72331L5.79705 1.75761L5.74294 1.79324L5.68884 1.82853L5.63505 1.86483L5.58095 1.90145L5.52684 1.93808L5.47338 1.97571L5.41992 2.01367C5.32909 2.07227 5.24085 2.1362 5.15486 2.20513L5.10236 2.24408L5.04954 2.28404L4.99705 2.324L4.94455 2.36429L4.89238 2.40524L4.84053 2.44653L4.78835 2.48849L4.7365 2.53077L4.68497 2.57339L4.63312 2.61668L4.58191 2.65997L4.5307 2.70425L4.47982 2.74887C4.39447 2.81746 4.31138 2.89138 4.23151 2.9703L4.18127 3.01625L4.13135 3.06187L4.08143 3.10881L4.03151 3.1561L3.98223 3.20371L3.93264 3.25166L3.88368 3.29994L3.78545 3.39883L3.73715 3.44878L3.68851 3.49939L3.6402 3.55L3.59222 3.60161C3.51299 3.67953 3.43634 3.76277 3.36355 3.85101L3.31911 3.89963L3.31525 3.90495L3.27499 3.94891L3.26822 3.9579L3.23087 3.99852L3.2212 4.01117L3.18706 4.04846L3.1745 4.06511L3.14326 4.09941L3.12781 4.11972L3.10011 4.15035L3.08207 4.17466L3.05695 4.20196L3.0357 4.22993L3.0138 4.25391L2.98996 4.28587L2.97096 4.30652L2.94423 4.34248L2.92845 4.35946L2.89882 4.39942L2.88626 4.41307L2.85373 4.45669L2.84439 4.46701L2.81122 4.51096L2.80639 4.51596L2.77193 4.56224L2.76967 4.56457C2.69785 4.65181 2.63054 4.74171 2.56806 4.83428L2.52942 4.88656L2.49109 4.93883L2.45341 4.99144L2.41541 5.04505L2.37773 5.09833L2.34101 5.15094L2.3043 5.20455L2.2679 5.25849L2.23151 5.3121L2.19576 5.36637L2.16033 5.42065L2.12426 5.47625L2.08755 5.53319L2.01541 5.6484C1.95293 5.74097 1.89463 5.83653 1.84182 5.93409L1.77289 6.05063L1.7394 6.10923L1.70558 6.16784L1.67273 6.22677L1.63988 6.28604L1.608 6.34531L1.57579 6.40458L1.51331 6.52379L1.48272 6.58405L1.45212 6.64399L1.42249 6.70426C1.36967 6.80115 1.32169 6.90004 1.27885 7.00094L1.24987 7.06154L1.22185 7.12214L1.19383 7.18307L1.16645 7.24434L1.13908 7.30594L1.11235 7.36687L1.08594 7.42847L1.05985 7.49007L1.03441 7.55201L1.00864 7.61394L0.983844 7.6762L0.959368 7.73814L0.935213 7.8004L0.911703 7.86267C0.868868 7.96289 0.831509 8.06478 0.798337 8.16801L0.775793 8.23094L0.75357 8.29354L0.73167 8.3568L0.710414 8.42007L0.689158 8.483L0.668546 8.5466L0.648256 8.60986L0.620237 8.6991L0.608643 8.73672L0.57064 8.86458L0.552282 8.92885L0.534247 8.99245C0.519432 9.03906 0.508804 9.08634 0.495921 9.13329C0.473055 9.21088 0.450511 9.28879 0.43312 9.36737L0.416694 9.43164L0.400591 9.49623L0.38481 9.56083L0.369029 9.6251L0.3394 9.75429L0.324907 9.81922L0.311058 9.88448L0.297532 9.94875L0.284327 10.0137L0.271445 10.0793L0.258884 10.1442L0.246646 10.2091L0.235052 10.2744C0.212186 10.3783 0.19415 10.4832 0.180624 10.5884L0.169996 10.654L0.160012 10.7189L0.149706 10.7845L0.140044 10.8501L0.131026 10.9154L0.122008 10.981L0.113635 11.0466L0.105905 11.1118L0.0978539 11.1777L0.0904465 11.2433L0.0833611 11.3093L0.0769199 11.3745L0.0704787 11.4405L0.0646816 11.5064C0.051155 11.6106 0.0421373 11.7162 0.0385946 11.8211L0.0334416 11.887L0.0289328 11.9526L0.0212033 12.0841L0.0176606 12.1497L0.01444 12.2156L0.00928704 12.3471L0.00542231 12.479L0.00413406 12.5449L0.00316788 12.6102L0.00252375 12.6761L0.00220169 12.7417V12.8077C-0.00134098 12.9119 -0.000696857 13.0168 0.00477818 13.1206L0.00574437 13.1869L0.00735467 13.2518L0.00928704 13.3174L0.0137959 13.4486L0.0163724 13.5142L0.0234577 13.6451L0.0273225 13.7107L0.0315093 13.7759L0.0360181 13.8412L0.0463241 13.9717L0.0517991 14.0367C0.0569521 14.1405 0.066936 14.2438 0.0814287 14.3463L0.08787 14.4112L0.102041 14.5411L0.10977 14.6054L0.117822 14.6706L0.126195 14.7352L0.134891 14.7995L0.143587 14.8641L0.152926 14.9287L0.162588 14.9926L0.172894 15.0575L0.182878 15.1211L0.193828 15.1857L0.204778 15.25L0.21605 15.3136C0.230221 15.4155 0.249223 15.5171 0.272733 15.6169L0.284971 15.6809L0.297532 15.7441L0.310736 15.8081L0.323941 15.871L0.337789 15.9346L0.351638 15.9975L0.366131 16.0608L0.380624 16.1234L0.39576 16.1867L0.426678 16.3119L0.442781 16.3748L0.458884 16.4367L0.475632 16.4993L0.492701 16.5616L0.510092 16.6239C0.52072 16.6691 0.535535 16.7134 0.548095 16.758C0.558079 16.791 0.565165 16.8243 0.576437 16.8569L0.59415 16.9189L0.612186 16.9801L0.630865 17.0414L0.649867 17.103L0.688514 17.2255L0.72845 17.3474L0.749062 17.4077L0.769996 17.4686L0.791252 17.5292L0.812508 17.5891L0.834408 17.6494L0.85663 17.7097L0.878852 17.7693L0.901719 17.8289L0.918144 17.8715C0.94101 17.9328 0.962588 17.9944 0.988997 18.054L1.01219 18.1132L1.03602 18.1722L1.06017 18.2314L1.08368 18.2881L1.08465 18.2901L1.10913 18.349L1.15937 18.4655L1.18481 18.5238L1.2109 18.5817L1.23698 18.6393L1.26372 18.6973L1.29045 18.7542L1.3175 18.8118L1.37289 18.9257C1.41412 19.0183 1.45953 19.1092 1.50945 19.1977L1.53811 19.2537L1.5671 19.3099L1.5964 19.3656L1.62603 19.4212L1.65599 19.4768L1.68626 19.5317L1.71718 19.587L1.74777 19.6416L1.77901 19.6962L1.81058 19.7505L1.84246 19.8051L1.90687 19.913L1.93972 19.9662L1.97289 20.0195C2.02249 20.1078 2.0766 20.1933 2.13489 20.2769L2.16903 20.3295L2.20317 20.3815L2.23795 20.4337L2.27273 20.4857L2.30816 20.5373L2.34326 20.5882L2.37901 20.6395L2.41541 20.6905L2.45148 20.7411L2.48819 20.7913L2.52523 20.8416L2.56291 20.8916L2.60027 20.9415L2.63827 20.9905L2.64471 20.9995C2.69077 21.0614 2.73682 21.1237 2.78739 21.1823L2.82571 21.2312L2.86436 21.2795L2.90365 21.3281L2.94294 21.3757L2.98256 21.4237L3.02249 21.4713L3.06275 21.5182L3.10333 21.5655L3.18545 21.6584L3.227 21.7044L3.31074 21.7956L3.35325 21.8409C3.41895 21.9175 3.48916 21.991 3.56355 22.0616L3.56549 22.0633L3.60349 22.1033L3.60864 22.1076L3.64407 22.1445L3.65212 22.1515L3.68465 22.1855L3.6956 22.1952L3.72555 22.2261L3.74004 22.2384L3.76677 22.2667L3.78417 22.2814L3.80832 22.3067L3.82893 22.3247L3.85019 22.3463L3.87402 22.367L3.89238 22.386L3.91943 22.4093L3.93457 22.4252L3.96452 22.4509L3.97708 22.4642L4.0109 22.4928L4.02024 22.5025L4.05663 22.5338L4.06339 22.5408L4.10333 22.5747L4.10719 22.5787L4.14971 22.6154L4.15067 22.616C4.22539 22.6866 4.30236 22.7519 4.38127 22.8128L4.42926 22.8521L4.4766 22.8911L4.52491 22.9304L4.57322 22.969L4.62185 23.0073L4.67112 23.0449L4.72008 23.0822L4.77 23.1198L4.81927 23.1565L4.86951 23.1927L4.9204 23.2294L4.97064 23.265C5.04987 23.3259 5.13103 23.3819 5.21412 23.4328L5.26533 23.4678L5.31718 23.5021L5.36935 23.536L5.47434 23.6026L5.52716 23.6356L5.58062 23.6682L5.68755 23.7322L5.74165 23.7635L5.79608 23.7944L5.85083 23.8254C5.93328 23.876 6.01798 23.9223 6.10397 23.9636L6.15937 23.9929L6.21476 24.0218L6.2708 24.0508L6.32684 24.0788L6.38352 24.1068L6.44021 24.1344L6.49689 24.1614L6.55454 24.188L6.56581 24.193L6.61219 24.2143L6.66983 24.2399L6.72813 24.2653L6.78674 24.2902C6.87241 24.3315 6.95969 24.3678 7.04761 24.3994L7.10687 24.4231L7.16645 24.4464L7.22603 24.469L7.28594 24.4917L7.34584 24.5136L7.40639 24.5353L7.46726 24.5563L7.52845 24.5772L7.58964 24.5972L7.65115 24.6175L7.71331 24.6365C7.80091 24.6685 7.89012 24.6951 7.97998 24.7174L8.04214 24.7351L8.10526 24.7531L8.16806 24.77L8.23119 24.7864L8.29463 24.8027L8.35872 24.8187L8.42281 24.834L8.48723 24.849L8.55164 24.8633L8.61669 24.8773L8.68207 24.8906C8.77161 24.9129 8.86146 24.9302 8.95228 24.9432L9.01798 24.9548L9.08401 24.9668L9.15003 24.9778L9.21669 24.9881L9.28336 24.9981L9.35035 25.0078L9.41766 25.0168L9.48529 25.0254L9.55293 25.0334L9.6212 25.0411L9.68948 25.0484C9.77998 25.0614 9.87048 25.0694 9.9613 25.0734L10.0299 25.0787L10.0991 25.0837L10.1681 25.0884L10.238 25.0927L10.3072 25.096L10.3774 25.099L10.4479 25.1017L10.5185 25.1037L10.5893 25.105L10.6128 25.1053L10.6605 25.1057L10.732 25.1063C10.8222 25.11 10.9127 25.1097 11.0035 25.1043L11.0743 25.1033L11.1465 25.1013L11.2189 25.0993L11.2911 25.0964L11.3642 25.093L11.4367 25.0894L11.5101 25.0847L11.5835 25.0797L11.6573 25.0744L11.731 25.068L11.8057 25.0617C11.9855 25.0514 12.1645 25.0234 12.3397 24.9771C12.8769 24.8483 13.3832 24.5519 13.7787 24.0888C14.2882 23.4918 14.5175 22.7346 14.4766 21.994L14.474 21.8708L14.4731 21.8089L14.4705 21.6857V21.6791L14.4396 21.6887L14.3768 21.708L14.3136 21.727L14.2531 21.7446L14.2457 21.7466L14.1819 21.7626L14.1178 21.7786L14.0544 21.7939L13.9903 21.8092L13.9268 21.8236L13.8624 21.8375L13.798 21.8512L13.7339 21.8645L13.6698 21.8768L13.6054 21.8892L13.5465 21.8998L13.5346 21.9015L13.4695 21.9111L13.4051 21.9198L13.34 21.9284L13.2753 21.9364L13.2106 21.9438L13.1462 21.9511L13.0811 21.9574L13.0161 21.9637L12.951 21.9694L12.8863 21.9744L12.8779 21.9751L12.8128 21.9777L12.7481 21.9801L12.6824 21.9817L12.6173 21.9834L12.5526 21.9841L12.4875 21.9844L12.4222 21.9841L12.3571 21.9834L12.2924 21.9824L12.2318 21.9804L12.217 21.9797L12.152 21.9754L12.0869 21.9707L12.0222 21.9657L11.9571 21.9597L11.8921 21.9538L11.827 21.9471L11.7623 21.9401L11.6979 21.9321L11.6328 21.9241L11.6199 21.9221L11.5561 21.9115L11.4914 21.9001L11.4273 21.8882L11.3626 21.8758L11.2985 21.8632L11.2334 21.8495L11.1697 21.8359L11.1056 21.8212L11.0418 21.8066L11.027 21.8029L10.9632 21.7853L10.8988 21.767L10.8357 21.7483L10.7719 21.729L10.7085 21.7094L10.6447 21.689L10.5816 21.6681L10.5185 21.6468L10.4624 21.6268L10.4376 21.6175L10.3748 21.5931L10.3123 21.5678L10.2499 21.5419L10.1916 21.5172L10.1874 21.5156L10.1256 21.4889L10.0631 21.4613L10.0012 21.4333L9.9394 21.4047L9.91364 21.392L9.85599 21.3631L9.79512 21.3314L9.7336 21.2988L9.67273 21.2655L9.61186 21.2322L9.55164 21.1976L9.49077 21.1629L9.43087 21.1276L9.37515 21.094L9.34423 21.0747L9.28465 21.0357L9.22507 20.9965L9.16613 20.9562L9.10687 20.9155L9.04793 20.8743L8.98964 20.8326L8.93103 20.79L8.87273 20.7471L8.83409 20.7174L8.78352 20.6778L8.72587 20.6309L8.66919 20.5839L8.61186 20.5356L8.55486 20.487L8.4985 20.4381L8.44214 20.3888L8.3861 20.3382L8.33038 20.2876L8.28948 20.2486L8.28465 20.2433L8.23827 20.199L8.22571 20.1843L8.18352 20.1444L8.16677 20.1254L8.12909 20.0891L8.10816 20.0651L8.07467 20.0332L8.05019 20.0045L8.02217 19.9782L7.99769 19.9496L7.97322 19.9269L7.94616 19.8953L7.92555 19.8753L7.89528 19.8404L7.87756 19.8241L7.84439 19.7851L7.83054 19.7718L7.79383 19.7295L7.78352 19.7195L7.74326 19.6732L7.74004 19.6699L7.72716 19.6549L7.68143 19.6003L7.63666 19.5457L7.59157 19.4901L7.54648 19.4335L7.50172 19.3769L7.4576 19.3199L7.4138 19.2623L7.37032 19.2047L7.32748 19.1465L7.31363 19.1268L7.29077 19.0948L7.2679 19.0625L7.22797 19.0029L7.18803 18.9427L7.14906 18.8824L7.11009 18.8218L7.07177 18.7612L7.03376 18.7003L6.99608 18.639L6.95937 18.5774L6.92458 18.5178L6.90591 18.4855L6.87144 18.4222L6.83763 18.3593L6.77128 18.2321L6.73876 18.1682L6.70687 18.1039L6.67531 18.0397L6.64407 17.9754L6.61315 17.9101L6.59415 17.8675L6.56806 17.8096L6.54004 17.7436L6.51267 17.6777L6.48529 17.6115L6.45856 17.5449L6.43248 17.4783L6.40671 17.4113L6.38127 17.3444L6.35647 17.2775L6.33199 17.2099L6.31653 17.1649L6.29528 17.101L6.27338 17.0331L6.25212 16.9645L6.23119 16.8962L6.21058 16.8273L6.19061 16.7584L6.17096 16.6898L6.15164 16.6205L6.13296 16.5513L6.11492 16.4823L6.10172 16.4291L6.0869 16.3671L6.07112 16.2969L6.05599 16.2273L6.04085 16.1567L6.02668 16.0868L6.01251 16.0162L5.99898 15.9459L5.98642 15.875L5.97354 15.8047L5.9613 15.7338L5.95003 15.6649L5.9423 15.6136L5.93296 15.5424L5.92362 15.4714L5.91492 15.3998L5.90655 15.3289L5.89882 15.2573L5.89141 15.1864L5.88433 15.1148L5.87789 15.0436L5.87144 14.972L5.86597 14.9004L5.86146 14.8351L5.85792 14.7765L5.8547 14.7046L5.85212 14.6333L5.84987 14.5618L5.84793 14.4902L5.84665 14.4182L5.84568 14.347L5.84504 14.2751L5.84471 14.2035L5.84504 14.1319L5.846 14.061L5.84729 13.995L5.84922 13.9351L5.85212 13.8638L5.85599 13.7923L5.86017 13.721L5.86468 13.6501L5.86951 13.5785L5.87499 13.5079L5.88078 13.4366L5.8869 13.3657L5.89334 13.2948L5.90075 13.2239L5.90784 13.1573L5.91492 13.099L5.92426 13.0287L5.93425 12.9585L5.94487 12.8879L5.95582 12.818L5.96677 12.7477L5.97837 12.6781L5.99061 12.6082L6.00285 12.5386L6.01573 12.469L6.02925 12.3998L6.04246 12.3325L6.05405 12.2779L6.06983 12.2096L6.08626 12.141L6.09528 12.1037L6.10301 12.0724L6.11331 12.0305L6.11782 12.0015L6.12652 11.9512L6.13392 11.9076L6.1452 11.8507L6.15647 11.7941L6.16806 11.7375L6.1803 11.6805L6.19254 11.6239L6.20542 11.5677L6.21863 11.5111L6.23215 11.4548L6.246 11.3988L6.25953 11.3462L6.26951 11.3093L6.28562 11.2537L6.30204 11.1984L6.31911 11.1428L6.33586 11.0875L6.35357 11.0322L6.38964 10.9224L6.40832 10.8674L6.42764 10.8128L6.44504 10.7645L6.45824 10.7296L6.47982 10.6753L6.50107 10.6217L6.52297 10.5677L6.56806 10.4612L6.59125 10.4082L6.61476 10.355L6.63859 10.302L6.66275 10.2494L6.67595 10.2221L6.70075 10.1722L6.72716 10.1209L6.75421 10.0689L6.78127 10.0177L6.80897 9.96673L6.83698 9.91545L6.86533 9.86517L6.89399 9.81456L6.9233 9.76395L6.93972 9.73631L6.96613 9.69302L6.99769 9.64374L7.0299 9.5948L7.06178 9.54618L7.09431 9.49757L7.12716 9.44929L7.16066 9.401L7.19383 9.35372L7.227 9.30711L7.26049 9.26082L7.27048 9.24784L7.27306 9.24517L7.30236 9.20588L7.31041 9.19689L7.33779 9.1606L7.3481 9.14928L7.37289 9.11598L7.3861 9.10166L7.40864 9.07136L7.4241 9.05438L7.44439 9.02741L7.46243 9.00776L7.48078 8.98379L7.50172 8.96048L7.51975 8.93651L7.5452 8.90854L7.56066 8.88823L7.58932 8.85693L7.60188 8.84028L7.63344 8.80565L7.64278 8.793L7.67756 8.75504L7.68111 8.75038L7.71202 8.71675L7.79705 8.62884L7.83924 8.58555L7.88207 8.54293L7.92555 8.50065L7.95615 8.47101L7.96871 8.45869L8.01186 8.4174L8.05566 8.37645L8.09431 8.34182L8.12394 8.31551L8.16839 8.27755L8.21347 8.23993L8.25792 8.2033L8.30333 8.16667L8.34874 8.13038L8.39415 8.09475L8.43988 8.05946L8.48562 8.02483L8.50977 8.00718L8.5526 7.97688L8.59898 7.94491L8.64568 7.91361L8.69302 7.88265L8.74004 7.85168L8.78706 7.82171L8.83473 7.79208L8.88239 7.76278L8.92684 7.73614L8.94713 7.72449L8.99512 7.69785L9.04375 7.67188L9.09238 7.64624L9.14069 7.62126L9.18964 7.59629L9.2386 7.57165L9.28755 7.54801L9.3365 7.5247L9.35582 7.51571L9.39995 7.4964L9.44987 7.47542L9.49979 7.45511L9.54971 7.43513L9.59963 7.41549L9.64987 7.39617L9.70011 7.37753L9.75035 7.35955L9.80091 7.34157L9.81251 7.33757L9.86339 7.32159L9.91428 7.30627L9.96484 7.29195L10.0161 7.2773L10.0669 7.26332L10.1185 7.24967L10.1697 7.23635L10.2212 7.22336L10.2718 7.21104L10.2821 7.20904L10.3336 7.19872L10.3858 7.18873L10.4373 7.17941L10.4892 7.17009L10.5413 7.16143L10.5932 7.1531L10.645 7.14511L10.6972 7.13779L10.7494 7.13046L10.7613 7.12913L10.8096 7.12414L10.8621 7.11947L10.9143 7.11515L10.9668 7.11148L11.0189 7.10782L11.0714 7.10449L11.1243 7.10183L11.1768 7.0995L11.2818 7.09617H11.2885L11.3407 7.0965L11.3935 7.09716L11.4463 7.09816L11.4988 7.09983L11.5513 7.10183L11.6038 7.10416L11.6563 7.10682L11.7088 7.11015L11.7613 7.11348L11.8141 7.11714L11.8238 7.11814L11.8718 7.12314L11.9243 7.12913L11.9768 7.13579L12.0289 7.14245L12.0814 7.14977L12.1339 7.15743L12.1858 7.16542L12.2383 7.17375L12.2908 7.18241L12.3429 7.19173L12.3951 7.20105L12.4012 7.20238L12.4508 7.21271L12.5027 7.22436L12.5542 7.23668L12.6061 7.249L12.6576 7.26165L12.7094 7.27464L12.761 7.28829L12.8125 7.30194L12.8637 7.31626L12.9152 7.33091L12.9665 7.34556L13.0125 7.35988L13.0193 7.36155L13.0702 7.37853L13.121 7.39617L13.1716 7.41382L13.2218 7.4318L13.2727 7.45012L13.323 7.4691L13.3732 7.48807L13.4231 7.50739L13.4737 7.52737L13.5236 7.54734L13.5735 7.56799L13.617 7.58664L13.6212 7.58863L13.6708 7.61094L13.7198 7.63392L13.7687 7.65689L13.8177 7.68053L13.8663 7.70417L13.9636 7.75279L14.0115 7.77776L14.0602 7.80273L14.1561 7.85401L14.1996 7.87832L14.2454 7.90496L14.2924 7.93293L14.3391 7.96123L14.3858 7.98987L14.4785 8.04847L14.5243 8.0781L14.5706 8.10807L14.6164 8.13837L14.6621 8.16867L14.7078 8.19964L14.7481 8.22827L14.7871 8.25591L14.8312 8.28921L14.8753 8.32217L14.9191 8.35614L14.9629 8.38977L15.0064 8.4244L15.0495 8.45869L15.1359 8.52862L15.1784 8.56424L15.2209 8.59987L15.2621 8.63517L15.2888 8.65881L15.2962 8.6668L15.3297 8.69643L15.3394 8.70709L15.3706 8.73506L15.3826 8.74804L15.4112 8.77302L15.4257 8.789L15.4515 8.81164L15.4685 8.82996L15.4917 8.8506L15.5111 8.87158L15.5317 8.88956L15.5532 8.91353L15.5713 8.92951L15.5954 8.95549L15.6106 8.96914L15.6373 8.99811L15.6502 9.00943L15.6789 9.04039L15.6888 9.04939L15.7204 9.08335L15.7249 9.08734L15.75 9.11465L15.7874 9.15694L15.8241 9.19922L15.8611 9.24218L15.8808 9.26548L15.8975 9.28513L15.9339 9.32875L16.0061 9.41599L16.0412 9.45994L16.0766 9.50456L16.1117 9.54951L16.1371 9.58347L16.1687 9.62643L16.2016 9.67338L16.2344 9.71999L16.2669 9.76694L16.2991 9.81422L16.3313 9.86184L16.3626 9.90945L16.3941 9.95707L16.4251 10.0057L16.456 10.054L16.4763 10.0873L16.4792 10.0923L16.5082 10.1422L16.5365 10.1921L16.5652 10.2428L16.5932 10.2934L16.6209 10.3447L16.6483 10.3956L16.6753 10.4472L16.702 10.4985L16.7288 10.5508L16.751 10.5967L16.7751 10.6487L16.7993 10.7019L16.8231 10.7559L16.8463 10.8095L16.8927 10.918L16.9149 10.9726L16.9371 11.0279L16.959 11.0825L16.978 11.1355L16.9977 11.1914L17.0167 11.248L17.036 11.3049L17.0547 11.3622L17.0908 11.4768L17.1082 11.5344L17.1252 11.5926L17.1278 11.6023L17.1417 11.6526L17.1568 11.7122L17.1851 11.8307L17.199 11.8906L17.2022 11.9053L17.2019 11.9L17.1932 11.826Z" fill="#C3C2F2"/>
<path fill-rule="evenodd" clip-rule="evenodd" d="M24.6698 22.8907L24.6682 22.8291L24.6663 22.7672L24.665 22.7059L24.663 22.644L24.6614 22.5821L24.6595 22.5208L24.6579 22.4589L24.656 22.3976L24.6543 22.3357L24.6524 22.2741L24.6511 22.2125L24.6492 22.1509L24.6476 22.0893L24.6456 22.0273L24.644 21.9657L24.6421 21.9041L24.6405 21.8425L24.6386 21.7809L24.6373 21.7193L24.6357 21.6577L24.6337 21.5961L24.6321 21.5342L24.6302 21.4726L24.6286 21.411L24.6266 21.3491L24.6218 21.1643L24.6199 21.1027L24.6183 21.0411L24.6163 20.9795L24.6147 20.9175L24.6128 20.8563L24.6115 20.7943L24.6096 20.7327L24.608 20.6711L24.606 20.6095L24.6044 20.5479L24.6025 20.4863L24.6009 20.4244L24.599 20.3628L24.5977 20.3012L24.5957 20.2396L24.5941 20.178L24.5922 20.1161L24.589 19.9929L24.587 19.9316L24.5822 19.7465L24.5803 19.6845L24.5787 19.6229L24.5767 19.5613L24.5751 19.5001L24.5732 19.4381L24.5684 19.253L24.5664 19.1914L24.5648 19.1298L24.5629 19.0685L24.5613 19.0063L24.5593 18.945L24.558 18.8834L24.5561 18.8215L24.5545 18.7599L24.5526 18.6983L24.551 18.6367L24.549 18.5747L24.5458 18.4519L24.5442 18.3899L24.5426 18.3283L24.5407 18.2667L24.539 18.2048L24.5371 18.1432L24.5355 18.0816L24.5336 18.02L24.5287 17.8352L24.5268 17.7733L24.5252 17.7117L24.5233 17.6501L24.5217 17.5881L24.5197 17.5269L24.5149 17.3417L24.513 17.2801L24.5114 17.2189L24.5094 17.1569L24.5078 17.0953L24.5059 17.0334L24.5043 16.9718L24.503 16.9105L24.501 16.8486L24.4994 16.787L24.4975 16.7257L24.4959 16.6635L24.494 16.6019L24.4891 16.4171L24.4872 16.3551L24.4856 16.2942L24.4837 16.2319L24.482 16.1707L24.4801 16.1091L24.4753 15.9236L24.4733 15.8623L24.4717 15.8004L24.4698 15.7388L24.4682 15.6772L24.4663 15.6156L24.4598 15.3689L24.4579 15.3073L24.4563 15.2457L24.4543 15.1841L24.4527 15.1221L24.4508 15.0609L24.4495 14.9989L24.4476 14.9373L24.446 14.8761L24.444 14.8138L24.4424 14.7525L24.4405 14.6906L24.4357 14.5058L24.4337 14.4442L24.4321 14.3826L24.4302 14.321L24.4286 14.2594L24.4266 14.1975L24.4218 14.0123L24.4199 13.9511L24.4183 13.8891L24.4163 13.8275L24.4131 13.7043L24.4112 13.6431L24.4099 13.5808L24.408 13.5195L24.4064 13.4579L24.4047 13.3367L24.4035 13.2595L24.4018 13.1822L24.3996 13.1053L24.397 13.0291L24.3938 12.9528L24.3903 12.8762L24.3819 12.7251L24.3771 12.6491L24.3661 12.499L24.3597 12.4244C24.3539 12.2985 24.3426 12.173 24.3255 12.0485L24.3101 11.9L24.302 11.826L24.284 11.6789L24.2746 11.6059L24.254 11.4601L24.2434 11.3875L24.2321 11.3153L24.2205 11.2433L24.2086 11.1711L24.1957 11.0998C24.1793 10.976 24.1568 10.8528 24.1291 10.7312L24.1155 10.66L24.1017 10.5894L24.0872 10.5188L24.0569 10.3783L24.0411 10.3087L24.025 10.2388L24.0086 10.1695L23.9922 10.1006L23.9751 10.0316L23.9397 9.89446C23.9123 9.77326 23.8795 9.65339 23.8415 9.53518L23.8221 9.46726L23.8031 9.40033L23.7828 9.33274L23.7629 9.26581L23.7423 9.19921L23.7213 9.13262L23.7001 9.06669L23.6785 9.00043L23.6566 8.93483L23.6341 8.86924L23.6115 8.80398L23.5886 8.73905L23.5648 8.67445C23.5271 8.55658 23.4843 8.44104 23.4353 8.32716L23.4112 8.26323L23.3864 8.19963L23.3613 8.13603L23.3358 8.07277L23.3101 8.00984L23.2837 7.94724L23.2569 7.88464L23.2302 7.82237L23.2028 7.76044L23.1758 7.69884L23.1197 7.5763L23.0911 7.51537L23.0621 7.45477C23.0141 7.34189 22.9606 7.23101 22.9017 7.12313L22.8717 7.06319L22.8415 7.00359L22.8112 6.94432L22.7806 6.88539L22.7494 6.82645L22.7181 6.76785L22.6866 6.70958L22.6543 6.65197L22.6221 6.59403L22.5896 6.53643L22.5568 6.47916L22.4904 6.36595C22.4318 6.2584 22.3687 6.15318 22.2998 6.05129L22.2653 5.99535L22.2305 5.93974L22.1961 5.8848L22.1606 5.82986L22.1252 5.77525L22.0891 5.72065L22.0534 5.6667L22.017 5.61276L21.9803 5.55882L21.9432 5.50555L21.9062 5.4526L21.8688 5.39999L21.8308 5.34738L21.7932 5.29511L21.7545 5.24316C21.6862 5.14161 21.6128 5.04405 21.5339 4.94881L21.4952 4.8982L21.456 4.84726L21.4163 4.79698L21.3764 4.7467L21.3365 4.69709L21.2959 4.64714L21.2556 4.59819L21.2147 4.54891L21.1735 4.49997L21.132 4.45135L21.0904 4.40341L21.0485 4.35512L21.0067 4.30784L20.9642 4.26056L20.9217 4.21294C20.8437 4.11971 20.7609 4.02948 20.6733 3.94324L20.6717 3.9419L20.6328 3.89962L20.6286 3.89562L20.5919 3.856L20.5851 3.85L20.551 3.81271L20.5413 3.80439L20.5097 3.77009L20.4972 3.7591L20.4682 3.72747L20.4531 3.71382L20.4263 3.68518L20.4089 3.66953L20.3845 3.64323L20.3642 3.62525L20.3426 3.60161L20.3194 3.58096L20.3001 3.55998L20.2743 3.53701L20.2572 3.51903L20.2289 3.49372L20.2144 3.47774L20.1832 3.45044L20.1713 3.43712L20.1374 3.40715L20.1281 3.39716L20.0914 3.3652L20.0846 3.3572L20.0456 3.32258L20.0405 3.31725L19.999 3.28062L19.9967 3.27796C19.9097 3.19272 19.8196 3.11314 19.7271 3.03922L19.6801 2.99859L19.6328 2.95764L19.5857 2.91735L19.5381 2.87706L19.4904 2.83743L19.4424 2.79781L19.3941 2.75852L19.3458 2.71956L19.2972 2.68094L19.2482 2.64264L19.1996 2.60435L19.1503 2.56673L19.101 2.52943L19.0514 2.49214L19.0408 2.48415L19.0018 2.45518L18.9516 2.41889C18.8589 2.34497 18.7635 2.27671 18.6663 2.21477L18.6154 2.17881L18.5651 2.14385L18.5146 2.10889L18.4634 2.07426L18.4125 2.03996L18.3609 2.00633L18.3094 1.97237L18.2579 1.93907L18.2064 1.90611L18.1545 1.87348L18.102 1.84085L18.0502 1.80921L17.9973 1.77725L17.9448 1.74562L17.892 1.71498L17.8392 1.68402L17.7864 1.65371C17.6891 1.59145 17.5903 1.53584 17.4891 1.4859L17.4353 1.45626L17.3819 1.42696L17.3281 1.39799L17.274 1.36969L17.2202 1.34172L17.1661 1.31375L17.1117 1.28611L17.0576 1.25914L17.0028 1.23217L16.9481 1.20553L16.8933 1.17956L16.8382 1.15359L16.7832 1.12828L16.7278 1.10298L16.6724 1.078L16.6167 1.05336C16.5165 1.00375 16.4141 0.959466 16.311 0.921174L16.255 0.897533L16.1993 0.874558L16.1436 0.851583L16.0872 0.82894L16.0308 0.806964L15.9745 0.785321L15.9178 0.763678L15.8614 0.7427L15.8047 0.721723L15.7477 0.701412L15.6907 0.6811L15.6337 0.661122L15.5767 0.64181L15.5194 0.62283L15.4621 0.604184L15.4047 0.585537C15.3017 0.547578 15.1977 0.514947 15.0923 0.487976L15.0347 0.470662L14.9771 0.45368L14.9194 0.437364L14.8614 0.421049L14.8031 0.405066L14.7455 0.389416L14.6872 0.374099L14.6289 0.359116L14.5706 0.344465L14.5123 0.33048L14.4534 0.316495L14.3951 0.302843L14.3365 0.289857L14.2779 0.277204L14.2192 0.264884C14.1146 0.237913 14.0093 0.216936 13.9033 0.201286L13.8466 0.190298L13.8444 0.189632L13.7851 0.178977L13.7262 0.168322L13.6672 0.158333L13.6083 0.148011L13.5487 0.138687L13.4894 0.129697L13.4305 0.120707L13.3706 0.112383L13.3117 0.104391L13.2521 0.0963999L13.1925 0.0894075L13.1329 0.0820821L13.0733 0.0757556L13.0141 0.0694291C12.9085 0.0537794 12.8022 0.0437902 12.6959 0.0394615L12.6366 0.0344669L12.5767 0.0298053L12.5171 0.0251437L12.4572 0.021481L12.3977 0.0178183L12.3374 0.0144886L12.2782 0.0114918L12.218 0.009161L12.158 0.00716316L12.0981 0.0054983L12.0382 0.00416641L11.9783 0.00316749L11.9181 0.00250154H11.798C11.6923 -0.00182711 11.5867 -0.000495216 11.4814 0.00616424L11.4212 0.00749614L11.3616 0.009161L11.3014 0.0111588L11.2418 0.0138226L11.1816 0.0168194L11.1217 0.0201491L11.0618 0.0234788L11.0015 0.0274745L10.9419 0.0321361L10.8817 0.0367978L10.8218 0.0421253L10.7619 0.0477859L10.7017 0.0537794L10.6421 0.0601059C10.5368 0.0667653 10.4321 0.0787524 10.3281 0.0963999L10.2682 0.104058L10.2086 0.11205L10.1487 0.120041L10.0891 0.129031L10.0295 0.138355L9.96997 0.147678L9.91006 0.158L9.8508 0.167989L9.7909 0.178977L9.731 0.189965L9.67206 0.201952L9.61248 0.213606L9.5529 0.226259C9.44887 0.243574 9.34613 0.265883 9.24436 0.294186L9.1851 0.307505L9.12584 0.32149L9.06723 0.33614L9.00765 0.350791L8.94903 0.366108L8.89009 0.381758L8.83083 0.39774L8.77222 0.414056L8.71328 0.431038L8.65467 0.448352L8.59605 0.466333L8.53711 0.48398L8.47882 0.50296L8.42021 0.521939C8.36642 0.536257 8.31425 0.556902 8.26111 0.574882L8.29621 0.585537L8.41087 0.62283L8.46819 0.64181L8.5252 0.661122L8.5822 0.6811L8.69621 0.721723L8.75257 0.7427L8.80926 0.763678L8.92262 0.806964L8.97866 0.82894L9.0347 0.851583L9.09074 0.874558L9.14645 0.897533L9.20249 0.921174C9.30587 0.959466 9.40797 1.00375 9.50845 1.05336L9.56385 1.078L9.61924 1.10298L9.67463 1.12828L9.72971 1.15359L9.78446 1.17956L9.83921 1.20553L9.89428 1.23217L10.0031 1.28611L10.0576 1.31375L10.112 1.34172L10.1658 1.36969L10.2196 1.39799L10.2733 1.42696L10.3268 1.45626L10.3806 1.4859C10.4817 1.53584 10.5806 1.59145 10.6779 1.65371L10.7307 1.68402L10.7835 1.71498L10.8363 1.74562L10.8888 1.77725L10.9413 1.80921L10.9935 1.84085L11.0978 1.90611L11.1497 1.93907L11.2012 1.97237L11.2524 2.00633L11.3036 2.03996L11.3548 2.07426L11.406 2.10889L11.5072 2.17881L11.5574 2.21477C11.655 2.27671 11.7503 2.34497 11.8431 2.41889L11.893 2.45518L11.9429 2.49214L11.9925 2.52943L12.0415 2.56673L12.0911 2.60435L12.14 2.64264L12.1883 2.68094L12.2373 2.71956L12.2859 2.75852L12.3336 2.79781L12.3819 2.83743L12.4292 2.87706L12.4772 2.91735L12.5242 2.95764L12.5719 2.99859L12.6183 3.03922C12.711 3.11314 12.8012 3.19272 12.8882 3.27796L12.8904 3.28062L12.9323 3.31725L12.9368 3.32258L12.9761 3.3572L12.9832 3.3652L13.0192 3.39716L13.0292 3.40715L13.0627 3.43712L13.075 3.45044L13.1059 3.47774L13.1204 3.49372L13.1487 3.51903L13.1658 3.53701L13.1915 3.55998L13.2109 3.58096L13.2337 3.60161L13.2556 3.62525L13.2759 3.64323L13.3001 3.66953L13.3178 3.68518L13.3445 3.71382L13.3597 3.72747L13.389 3.7591L13.4012 3.77009L13.4328 3.80439L13.4424 3.81271L13.4766 3.85L13.4837 3.856L13.52 3.89562L13.5242 3.89962L13.5632 3.9419L13.5648 3.94324C13.6524 4.02948 13.7352 4.11971 13.8128 4.21294L13.8556 4.26056L13.8981 4.30784L13.94 4.35512L13.9819 4.40341L14.0237 4.45135L14.0647 4.49997L14.1059 4.54891L14.1468 4.59819L14.1874 4.64714L14.2276 4.69709L14.2679 4.7467L14.3471 4.84726L14.3864 4.8982L14.4257 4.94881C14.5043 5.04405 14.5777 5.14161 14.646 5.24316L14.6843 5.29511L14.7223 5.34738L14.7603 5.39999L14.7977 5.4526L14.8347 5.50555L14.8714 5.55882L14.9085 5.61276L14.9448 5.6667L14.9806 5.72065L15.0167 5.77525L15.0521 5.82986L15.0872 5.8848L15.122 5.93974L15.1568 5.99535L15.1909 6.05129C15.2598 6.15318 15.3236 6.2584 15.3816 6.36595L15.4151 6.42255L15.4482 6.47916L15.4811 6.53643L15.5136 6.59403L15.5461 6.65197L15.578 6.70958L15.6096 6.76785L15.6408 6.82645L15.6721 6.88539L15.7027 6.94432L15.7329 7.00359L15.7632 7.06319L15.7764 7.0895L15.7932 7.12313C15.8518 7.23101 15.9052 7.34189 15.9539 7.45477L15.9825 7.51537L16.0109 7.5763L16.0669 7.69884L16.0943 7.76044L16.1217 7.82237L16.1484 7.88464L16.1751 7.94724L16.2012 8.00984L16.227 8.07277L16.2524 8.13603L16.2779 8.19963L16.3027 8.26323L16.3271 8.32716C16.3754 8.44104 16.4186 8.55658 16.4566 8.67445L16.4801 8.73905L16.503 8.80398L16.5255 8.86924L16.57 9.00043L16.5915 9.06669L16.6131 9.13262L16.6543 9.26581L16.6746 9.33274L16.6943 9.40033L16.7136 9.46726L16.7329 9.53518C16.7709 9.65339 16.8035 9.77326 16.8308 9.89446L16.8489 9.96305L16.8666 10.0316L16.8833 10.1006L16.9004 10.1695L16.9168 10.2388L16.9329 10.3087L16.9484 10.3783L16.9635 10.4485L16.9783 10.5188L16.9928 10.5894L17.0067 10.66L17.0205 10.7312C17.0482 10.8528 17.0704 10.976 17.0875 11.0998L17.0998 11.1711L17.1117 11.2433L17.1233 11.3153L17.1349 11.3875L17.1455 11.4601L17.1558 11.533L17.1658 11.6059L17.1754 11.6789L17.1845 11.7525L17.1932 11.826L17.2018 11.9L17.2022 11.9053L17.2125 11.9509L17.2254 12.0108L17.2376 12.0711L17.2498 12.1324L17.2527 12.1467L17.2621 12.2023L17.2721 12.2642L17.2814 12.3262L17.2904 12.3884L17.2988 12.4507L17.3072 12.5136L17.3149 12.5762L17.3223 12.6392L17.3291 12.7024L17.3307 12.7207L17.3355 12.7843L17.3439 12.9135L17.3474 12.9781L17.3506 13.0437L17.3529 13.1083L17.3552 13.1742L17.3571 13.2398L17.358 13.3001V13.3344L17.3574 13.401L17.3558 13.4696L17.3545 13.5442L17.3539 13.6058L17.3532 13.7293L17.3526 13.7912L17.3523 13.8528V13.9144L17.3516 13.9764L17.351 14.0996L17.3503 14.1612L17.3497 14.2847L17.349 14.3463L17.3484 14.4695L17.3477 14.5314L17.3471 14.655L17.3465 14.7166L17.3458 14.8401L17.3452 14.9017L17.3445 15.0249L17.3439 15.0868V15.1098L17.3436 15.1484L17.3432 15.21L17.3426 15.272L17.3419 15.3952L17.3413 15.4571L17.3407 15.5803L17.34 15.6422L17.3394 15.7654L17.3387 15.827V15.889L17.3384 15.9502L17.3378 16.0122L17.3371 16.1357L17.3365 16.1976L17.3358 16.3208L17.3352 16.3824L17.3345 16.5056L17.3339 16.5676L17.3336 16.6292L17.3329 16.6911L17.3323 16.8143L17.3316 16.8759L17.331 16.9998L17.3304 17.061L17.3297 17.1842L17.3291 17.2462L17.3284 17.3697L17.3278 17.4313L17.3271 17.5548L17.3265 17.6161L17.3258 17.74L17.3252 17.8016L17.3249 17.8632V17.9251L17.3242 17.9867L17.3239 18.0483L17.3236 18.1102L17.3229 18.1715L17.3223 18.295L17.3217 18.357L17.3213 18.4186L17.321 18.4805L17.3204 18.5421L17.3197 18.6656L17.3191 18.7269L17.3184 18.8501L17.3178 18.912L17.3171 19.0356L17.3165 19.0975L17.3159 19.221L17.3152 19.2823L17.3146 19.4058L17.3139 19.4674L17.3133 19.591L17.3126 19.6526L17.312 19.7761L17.3113 19.8374L17.311 19.8993V19.9609L17.3104 20.0228L17.3101 20.0598V20.0841L17.3097 20.1464L17.3091 20.208L17.3085 20.3312L17.3078 20.3931L17.3072 20.516L17.3065 20.5782L17.3059 20.7014L17.3052 20.7634L17.3046 20.8869L17.3039 20.9482L17.3033 21.0717L17.3027 21.1333L17.3023 21.1949L17.3017 21.2568L17.301 21.38L17.3004 21.442L17.2998 21.5652L17.2991 21.6271L17.2988 21.6887V21.75L17.2981 21.8122L17.2975 21.9354L17.2969 21.997L17.2962 22.1206L17.2956 22.1822L17.2949 22.3054L17.2943 22.3673L17.2936 22.4905L17.293 22.5528L17.2923 22.676L17.2917 22.7372L17.2911 22.8608L17.2904 22.9227L17.2901 22.984C17.2727 23.4148 17.3181 23.8464 17.4205 24.2626C17.6012 24.9965 17.9648 25.682 18.5104 26.2261C20.0279 27.7388 22.3642 27.5866 23.7287 25.8862C24.4147 25.0317 24.7239 23.9489 24.6698 22.8907" fill="#4746BD"/>
</svg>
